G04 DipTrace 3.1.0.1*
G04 BottomMask.gbr*
%MOIN*%
G04 #@! TF.FileFunction,Soldermask,Bot*
G04 #@! TF.Part,Single*
%ADD38C,0.102488*%
%ADD40R,0.102488X0.102488*%
%ADD42C,0.068*%
%ADD44C,0.068*%
%ADD46C,0.408*%
%ADD48R,0.108X0.108*%
%ADD50C,0.108*%
%ADD52C,0.118236*%
%ADD54R,0.118236X0.118236*%
%ADD56C,0.078866*%
%ADD58R,0.078866X0.078866*%
%FSLAX26Y26*%
G04*
G70*
G90*
G75*
G01*
G04 BotMask*
%LPD*%
D58*
X719000Y3494000D3*
D56*
X1154039D3*
D58*
X1694000D3*
D56*
X1258961D3*
D58*
X2619000D3*
D56*
X3054039D3*
D58*
X3594000D3*
D56*
X3158961D3*
D54*
X2719000Y3794000D3*
D52*
X3460732D3*
D54*
X819000D3*
D52*
X1560732D3*
D50*
X1594000Y2844000D3*
D48*
X1144000D3*
D50*
X2094000D3*
D48*
X1794000D3*
D50*
X2594000D3*
D48*
X2294000D3*
D50*
X3094000D3*
D48*
X2794000D3*
D50*
X1444000Y1669000D3*
X2931500D3*
X1919000Y3794000D3*
X3794000Y3494000D3*
D46*
X2194000Y2419000D3*
Y1219000D3*
D50*
X1894000Y1669000D3*
X794000D3*
X3594000D3*
X2494000D3*
D46*
X1094000Y869000D3*
X3294000D3*
D50*
X1919000Y3494000D3*
X3794000Y3794000D3*
D44*
X1219000Y4069000D3*
D42*
X819000D3*
D44*
X3119000D3*
D42*
X2719000D3*
D40*
X994000Y3144000D3*
D38*
X1208567D3*
X1423134D3*
D40*
X2994000D3*
D38*
X3208567D3*
X3423134D3*
M02*
