G04 DipTrace 3.1.0.1*
G04 Bottom.gbr*
%MOIN*%
G04 #@! TF.FileFunction,Copper,L2,Bot*
G04 #@! TF.Part,Single*
G04 #@! TA.AperFunction,Conductor*
%ADD14C,0.012992*%
%ADD16C,0.05*%
G04 #@! TA.AperFunction,CopperBalancing*
%ADD18C,0.025*%
G04 #@! TA.AperFunction,ComponentPad*
%ADD20R,0.070866X0.070866*%
%ADD21C,0.070866*%
%ADD22R,0.110236X0.110236*%
%ADD23C,0.110236*%
%ADD24C,0.1*%
%ADD25R,0.1X0.1*%
%ADD26C,0.4*%
%ADD27C,0.06*%
%ADD28C,0.06*%
%ADD29R,0.094488X0.094488*%
%ADD30C,0.094488*%
%FSLAX26Y26*%
G04*
G70*
G90*
G75*
G01*
G04 Bottom*
%LPD*%
X1423134Y3144000D2*
D16*
Y3223134D1*
X1694000Y3494000D1*
X1919000D1*
X3094000Y2844000D2*
D14*
X3394000Y3144000D1*
X3423134D1*
X2931500Y1669000D2*
Y2181500D1*
X3094000Y2344000D1*
Y2844000D1*
X3423134Y3144000D2*
X3494000D1*
X3594000Y3044000D1*
Y1669000D1*
X3294000Y869000D2*
Y1669000D1*
X3594000D1*
X3423134Y3144000D2*
D16*
Y3323134D1*
X3594000Y3494000D1*
X3794000D1*
X719000D2*
Y3419000D1*
X994000Y3144000D1*
X819000Y3794000D2*
Y3594000D1*
X719000Y3494000D1*
X819000Y3794000D2*
Y4069000D1*
X1154039Y3494000D2*
X1258961D1*
X2619000D2*
X2644000D1*
X2994000Y3144000D1*
X2719000Y3794000D2*
Y3594000D1*
X2619000Y3494000D1*
X2719000Y4069000D2*
Y3794000D1*
X3054039Y3494000D2*
X3158961D1*
X1219000Y4069000D2*
X1285732D1*
X1560732Y3794000D1*
X1919000D1*
X3460732D2*
X3794000D1*
X3119000Y4069000D2*
X3185732D1*
X3460732Y3794000D1*
X509018Y4131631D2*
D18*
X747062D1*
X890933D2*
X1147063D1*
X1350753D2*
X2647093D1*
X2790929D2*
X3047094D1*
X3250749D2*
X3878997D1*
X509018Y4106762D2*
X730950D1*
X907046D2*
X1130950D1*
X1375621D2*
X2630982D1*
X2807041D2*
X3030983D1*
X3275617D2*
X3878997D1*
X509018Y4081894D2*
X723881D1*
X914114D2*
X1123882D1*
X1400488D2*
X2623877D1*
X2814110D2*
X3023877D1*
X3300484D2*
X3878997D1*
X509018Y4057025D2*
X723773D1*
X914222D2*
X1123774D1*
X1425357D2*
X2623769D1*
X2814218D2*
X3023769D1*
X3325353D2*
X3878997D1*
X509018Y4032156D2*
X728007D1*
X909988D2*
X1130556D1*
X1450224D2*
X2628003D1*
X2809984D2*
X3030551D1*
X3350220D2*
X3878997D1*
X509018Y4007287D2*
X728007D1*
X909988D2*
X1146273D1*
X1475092D2*
X2628003D1*
X2809984D2*
X3046269D1*
X3375088D2*
X3878997D1*
X509018Y3982419D2*
X728007D1*
X909988D2*
X1181189D1*
X1499959D2*
X2628003D1*
X2809984D2*
X3081220D1*
X3399955D2*
X3878997D1*
X509018Y3957550D2*
X728007D1*
X909988D2*
X1269535D1*
X1524828D2*
X2628003D1*
X2809984D2*
X3169531D1*
X3424823D2*
X3878997D1*
X509018Y3932681D2*
X728007D1*
X909988D2*
X1294403D1*
X1549696D2*
X2628003D1*
X2809984D2*
X3194399D1*
X3449727D2*
X3878997D1*
X509018Y3907812D2*
X697865D1*
X940130D2*
X1319270D1*
X1596668D2*
X2597896D1*
X2840126D2*
X3219266D1*
X3496664D2*
X3878997D1*
X509018Y3882944D2*
X697865D1*
X940130D2*
X1344139D1*
X1641702D2*
X1845979D1*
X1992004D2*
X2597896D1*
X2840126D2*
X3244134D1*
X3541698D2*
X3721000D1*
X3867024D2*
X3878997D1*
X509018Y3858075D2*
X697865D1*
X940130D2*
X1369007D1*
X2015185D2*
X2597896D1*
X2840126D2*
X3269003D1*
X509018Y3833206D2*
X697865D1*
X940130D2*
X1393874D1*
X2028031D2*
X2597896D1*
X2840126D2*
X3293870D1*
X509018Y3808337D2*
X697865D1*
X940130D2*
X1418741D1*
X2034096D2*
X2597896D1*
X2840126D2*
X3318738D1*
X509018Y3783469D2*
X697865D1*
X940130D2*
X1440093D1*
X2034526D2*
X2597896D1*
X2840126D2*
X3340089D1*
X509018Y3758600D2*
X697865D1*
X940130D2*
X1445009D1*
X2029323D2*
X2597896D1*
X2840126D2*
X3345005D1*
X509018Y3733731D2*
X697865D1*
X940130D2*
X1456062D1*
X2017661D2*
X2597896D1*
X2840126D2*
X3356058D1*
X509018Y3708862D2*
X697865D1*
X940130D2*
X1475654D1*
X1996560D2*
X2597896D1*
X2840126D2*
X3375650D1*
X509018Y3683993D2*
X697865D1*
X940130D2*
X1513870D1*
X1607613D2*
X1888573D1*
X1949445D2*
X2597896D1*
X2840126D2*
X3413866D1*
X3507608D2*
X3763558D1*
X3824429D2*
X3878997D1*
X509018Y3659125D2*
X728007D1*
X909988D2*
X2628003D1*
X2809984D2*
X3878997D1*
X509018Y3634256D2*
X728007D1*
X909988D2*
X2628003D1*
X2809984D2*
X3878997D1*
X509018Y3609387D2*
X706728D1*
X909988D2*
X2606723D1*
X2809984D2*
X3878997D1*
X509018Y3584518D2*
X617555D1*
X909486D2*
X1111609D1*
X1196451D2*
X1216534D1*
X1301377D2*
X1592564D1*
X1795430D2*
X1848024D1*
X1989958D2*
X2517551D1*
X2809482D2*
X3011605D1*
X3096483D2*
X3116530D1*
X3201373D2*
X3878997D1*
X509018Y3559650D2*
X617555D1*
X903062D2*
X1077518D1*
X1335467D2*
X1592564D1*
X2014072D2*
X2517551D1*
X2803058D2*
X2977514D1*
X3235462D2*
X3878997D1*
X509018Y3534781D2*
X617555D1*
X887273D2*
X1061407D1*
X1351614D2*
X1592564D1*
X2027421D2*
X2517551D1*
X2787269D2*
X2961403D1*
X3251610D2*
X3878997D1*
X509018Y3509912D2*
X617555D1*
X862585D2*
X1053907D1*
X1359114D2*
X1582266D1*
X2033881D2*
X2517551D1*
X2762581D2*
X2953903D1*
X3259110D2*
X3878997D1*
X509018Y3485043D2*
X617555D1*
X837717D2*
X1053010D1*
X1359975D2*
X1557398D1*
X2034634D2*
X2517551D1*
X2780630D2*
X2953007D1*
X3259971D2*
X3878997D1*
X509018Y3460175D2*
X617555D1*
X820421D2*
X1058572D1*
X1354449D2*
X1532530D1*
X2029825D2*
X2517551D1*
X2805499D2*
X2958568D1*
X3254445D2*
X3878997D1*
X509018Y3435306D2*
X617555D1*
X830361D2*
X1071886D1*
X1341101D2*
X1507663D1*
X2018630D2*
X2517551D1*
X2830366D2*
X2971881D1*
X3241096D2*
X3878997D1*
X509018Y3410437D2*
X617555D1*
X855228D2*
X1098583D1*
X1314438D2*
X1482795D1*
X1998319D2*
X2517551D1*
X2855234D2*
X2998579D1*
X3214434D2*
X3878997D1*
X509018Y3385568D2*
X634564D1*
X880096D2*
X1457928D1*
X1713219D2*
X1882975D1*
X1955043D2*
X2624773D1*
X2880101D2*
X3878997D1*
X509018Y3360699D2*
X649923D1*
X904965D2*
X1433024D1*
X1688352D2*
X2649642D1*
X2904970D2*
X3878997D1*
X509018Y3335831D2*
X674504D1*
X929832D2*
X1408156D1*
X1663484D2*
X2674509D1*
X2929837D2*
X3878997D1*
X509018Y3310962D2*
X699371D1*
X954699D2*
X1383289D1*
X1638617D2*
X2699377D1*
X2954705D2*
X3878997D1*
X509018Y3286093D2*
X724239D1*
X979567D2*
X1358420D1*
X1613748D2*
X2724244D1*
X2979572D2*
X3878997D1*
X509018Y3261224D2*
X749106D1*
X1004434D2*
X1340765D1*
X1588881D2*
X2749112D1*
X3004440D2*
X3878997D1*
X509018Y3236356D2*
X773975D1*
X1107243D2*
X1144945D1*
X1272167D2*
X1333122D1*
X1564013D2*
X2773980D1*
X3107248D2*
X3144950D1*
X3272172D2*
X3878997D1*
X509018Y3211487D2*
X798843D1*
X1107243D2*
X1118240D1*
X1298865D2*
X1332117D1*
X1539146D2*
X2798848D1*
X3107248D2*
X3118253D1*
X3298870D2*
X3878997D1*
X509018Y3186618D2*
X823710D1*
X1527841D2*
X2823715D1*
X3313295D2*
X3878997D1*
X509018Y3161749D2*
X848577D1*
X1534946D2*
X2848583D1*
X3320365D2*
X3878997D1*
X509018Y3136881D2*
X873446D1*
X1536131D2*
X2873450D1*
X3321584D2*
X3878997D1*
X509018Y3112012D2*
X880766D1*
X1531646D2*
X2880772D1*
X3317098D2*
X3878997D1*
X509018Y3087143D2*
X880766D1*
X1306113D2*
X1325587D1*
X1520665D2*
X2880772D1*
X3306118D2*
X3878997D1*
X509018Y3062274D2*
X880766D1*
X1107243D2*
X1131345D1*
X1285803D2*
X1345896D1*
X1500354D2*
X2880772D1*
X3107248D2*
X3131350D1*
X3285808D2*
X3878997D1*
X509018Y3037406D2*
X880766D1*
X1107243D2*
X1176021D1*
X1241092D2*
X1390609D1*
X1455678D2*
X2880772D1*
X3107248D2*
X3176026D1*
X3241096D2*
X3878997D1*
X509018Y3012537D2*
X3878997D1*
X509018Y2987668D2*
X3878997D1*
X509018Y2962799D2*
X3878997D1*
X509018Y2937930D2*
X1027999D1*
X1260003D2*
X1527794D1*
X1660219D2*
X1678005D1*
X1910008D2*
X2027804D1*
X2160228D2*
X2178016D1*
X2409983D2*
X2527778D1*
X2660203D2*
X2677990D1*
X2909993D2*
X3878997D1*
X509018Y2913062D2*
X1027999D1*
X1260003D2*
X1501419D1*
X1910008D2*
X2001429D1*
X2409983D2*
X2501440D1*
X2909993D2*
X3878997D1*
X509018Y2888193D2*
X1027999D1*
X1260003D2*
X1486958D1*
X1910008D2*
X1986967D1*
X2409983D2*
X2486942D1*
X2909993D2*
X3878997D1*
X509018Y2863324D2*
X1027999D1*
X1260003D2*
X1479673D1*
X1910008D2*
X1979647D1*
X2409983D2*
X2479657D1*
X2909993D2*
X3878997D1*
X509018Y2838455D2*
X1027999D1*
X1260003D2*
X1478130D1*
X1910008D2*
X1978140D1*
X2409983D2*
X2478151D1*
X2909993D2*
X3878997D1*
X509018Y2813587D2*
X1027999D1*
X1260003D2*
X1482150D1*
X1910008D2*
X1982159D1*
X2409983D2*
X2482134D1*
X2909993D2*
X3878997D1*
X509018Y2788718D2*
X1027999D1*
X1260003D2*
X1492377D1*
X1910008D2*
X1992386D1*
X2409983D2*
X2492361D1*
X2909993D2*
X3878997D1*
X509018Y2763849D2*
X1027999D1*
X1260003D2*
X1511143D1*
X1910008D2*
X2011154D1*
X2409983D2*
X2511129D1*
X2909993D2*
X3878997D1*
X509018Y2738980D2*
X1027999D1*
X1260003D2*
X1548463D1*
X1639550D2*
X1678005D1*
X1910008D2*
X2048437D1*
X2139559D2*
X2178016D1*
X2409983D2*
X2548448D1*
X2639534D2*
X2677990D1*
X2909993D2*
X3878997D1*
X509018Y2714112D2*
X3878997D1*
X509018Y2689243D2*
X3878997D1*
X509018Y2664374D2*
X2095446D1*
X2292534D2*
X3878997D1*
X509018Y2639505D2*
X2047253D1*
X2340762D2*
X3878997D1*
X509018Y2614636D2*
X2014993D1*
X2373022D2*
X3878997D1*
X509018Y2589768D2*
X1990807D1*
X2397172D2*
X3878997D1*
X509018Y2564899D2*
X1972076D1*
X2415904D2*
X3878997D1*
X509018Y2540030D2*
X1957436D1*
X2430545D2*
X3878997D1*
X509018Y2515161D2*
X1946168D1*
X2441812D2*
X3878997D1*
X509018Y2490293D2*
X1937843D1*
X2450173D2*
X3878997D1*
X509018Y2465424D2*
X1932136D1*
X2455878D2*
X3878997D1*
X509018Y2440555D2*
X1928871D1*
X2459108D2*
X3878997D1*
X509018Y2415686D2*
X1928010D1*
X2459970D2*
X3878997D1*
X509018Y2390818D2*
X1929517D1*
X2458499D2*
X3878997D1*
X509018Y2365949D2*
X1933392D1*
X2454587D2*
X3878997D1*
X509018Y2341080D2*
X1939780D1*
X2448199D2*
X3878997D1*
X509018Y2316211D2*
X1948858D1*
X2439121D2*
X3878997D1*
X509018Y2291343D2*
X1960988D1*
X2427028D2*
X3878997D1*
X509018Y2266474D2*
X1976633D1*
X2411382D2*
X3878997D1*
X509018Y2241605D2*
X1996656D1*
X2391358D2*
X3878997D1*
X509018Y2216736D2*
X2022601D1*
X2365379D2*
X3878997D1*
X509018Y2191867D2*
X2057911D1*
X2330068D2*
X3878997D1*
X509018Y2166999D2*
X2114500D1*
X2273479D2*
X3878997D1*
X509018Y2142130D2*
X3878997D1*
X509018Y2117261D2*
X3878997D1*
X509018Y2092392D2*
X3878997D1*
X509018Y2067524D2*
X3878997D1*
X509018Y2042655D2*
X3878997D1*
X509018Y2017786D2*
X3878997D1*
X509018Y1992917D2*
X3878997D1*
X509018Y1968049D2*
X3878997D1*
X509018Y1943180D2*
X3878997D1*
X509018Y1918311D2*
X3878997D1*
X509018Y1893442D2*
X3878997D1*
X509018Y1868573D2*
X3878997D1*
X509018Y1843705D2*
X3878997D1*
X509018Y1818836D2*
X3878997D1*
X509018Y1793967D2*
X3878997D1*
X509018Y1769098D2*
X737983D1*
X849990D2*
X1387990D1*
X1499996D2*
X1838013D1*
X1950020D2*
X2437996D1*
X2550003D2*
X3878997D1*
X509018Y1744230D2*
X706512D1*
X881496D2*
X1356518D1*
X1531501D2*
X1806507D1*
X1981490D2*
X2406526D1*
X2581474D2*
X3878997D1*
X509018Y1719361D2*
X689790D1*
X898218D2*
X1339797D1*
X1548224D2*
X1789785D1*
X1998211D2*
X2389768D1*
X2598231D2*
X3878997D1*
X509018Y1694492D2*
X680891D1*
X907117D2*
X1330898D1*
X1557088D2*
X1780885D1*
X2007112D2*
X2380904D1*
X2607094D2*
X3878997D1*
X509018Y1669623D2*
X677984D1*
X909988D2*
X1327991D1*
X1559993D2*
X1778014D1*
X2009982D2*
X2377997D1*
X2610001D2*
X3878997D1*
X509018Y1644755D2*
X680604D1*
X907369D2*
X1330610D1*
X1557374D2*
X1780634D1*
X2007398D2*
X2380617D1*
X2607382D2*
X3878997D1*
X509018Y1619886D2*
X689180D1*
X898828D2*
X1339186D1*
X1548835D2*
X1789175D1*
X1998822D2*
X2389194D1*
X2598841D2*
X3878997D1*
X509018Y1595017D2*
X705436D1*
X882572D2*
X1355442D1*
X1532579D2*
X1805429D1*
X1982566D2*
X2405413D1*
X2582585D2*
X3878997D1*
X509018Y1570148D2*
X735722D1*
X852286D2*
X1385728D1*
X1502256D2*
X1835717D1*
X1952280D2*
X2435735D1*
X2552264D2*
X3878997D1*
X509018Y1545280D2*
X3878997D1*
X509018Y1520411D2*
X3878997D1*
X509018Y1495542D2*
X3878997D1*
X509018Y1470673D2*
X2113459D1*
X2274556D2*
X3878997D1*
X509018Y1445804D2*
X2057373D1*
X2330643D2*
X3878997D1*
X509018Y1420936D2*
X2022241D1*
X2365773D2*
X3878997D1*
X509018Y1396067D2*
X1996370D1*
X2391646D2*
X3878997D1*
X509018Y1371198D2*
X1976417D1*
X2411597D2*
X3878997D1*
X509018Y1346329D2*
X1960808D1*
X2427207D2*
X3878997D1*
X509018Y1321461D2*
X1948751D1*
X2439264D2*
X3878997D1*
X509018Y1296592D2*
X1939672D1*
X2448307D2*
X3878997D1*
X509018Y1271723D2*
X1933322D1*
X2454659D2*
X3878997D1*
X509018Y1246854D2*
X1929482D1*
X2458534D2*
X3878997D1*
X509018Y1221986D2*
X1928010D1*
X2459970D2*
X3878997D1*
X509018Y1197117D2*
X1928907D1*
X2459072D2*
X3878997D1*
X509018Y1172248D2*
X1932173D1*
X2455807D2*
X3878997D1*
X509018Y1147379D2*
X1937915D1*
X2450066D2*
X3878997D1*
X509018Y1122510D2*
X1019638D1*
X1168354D2*
X1946311D1*
X2441705D2*
X3878997D1*
X509018Y1097642D2*
X960537D1*
X1227491D2*
X1957614D1*
X2430400D2*
X3878997D1*
X509018Y1072773D2*
X924437D1*
X1263555D2*
X1972291D1*
X2415688D2*
X3878997D1*
X509018Y1047904D2*
X898026D1*
X1289966D2*
X1991094D1*
X2396885D2*
X3878997D1*
X509018Y1023035D2*
X877715D1*
X1310276D2*
X2015352D1*
X2372663D2*
X3878997D1*
X509018Y998167D2*
X861819D1*
X1326173D2*
X2047756D1*
X2340260D2*
X3878997D1*
X509018Y973298D2*
X849510D1*
X1338480D2*
X2096307D1*
X2291709D2*
X3878997D1*
X509018Y948429D2*
X840253D1*
X1347739D2*
X3878997D1*
X509018Y923560D2*
X833722D1*
X1354306D2*
X3878997D1*
X509018Y898692D2*
X829667D1*
X1358325D2*
X3878997D1*
X509018Y873823D2*
X828052D1*
X1359940D2*
X3878997D1*
X509018Y848954D2*
X828770D1*
X1359222D2*
X3878997D1*
X509018Y824085D2*
X831856D1*
X1356136D2*
X3878997D1*
X509018Y799217D2*
X837417D1*
X1350573D2*
X3878997D1*
X509018Y774348D2*
X845600D1*
X1342428D2*
X3878997D1*
X509018Y749479D2*
X856652D1*
X1331340D2*
X3878997D1*
X509018Y724610D2*
X871077D1*
X1316915D2*
X3878997D1*
X509018Y699741D2*
X889558D1*
X1298434D2*
X3878997D1*
X509018Y674873D2*
X913312D1*
X1274678D2*
X3878997D1*
X509018Y650004D2*
X944963D1*
X1243029D2*
X3878997D1*
X509018Y625135D2*
X991684D1*
X1196308D2*
X3878997D1*
X509018Y600266D2*
X3878997D1*
X509018Y575398D2*
X3878997D1*
X509018Y550529D2*
X3878997D1*
X509018Y525660D2*
X3878997D1*
X509018Y500791D2*
X3878997D1*
X629253Y3592933D2*
X692804D1*
X730500Y3630745D1*
Y3675349D1*
X700382Y3675382D1*
Y3912618D1*
X730488D1*
X730500Y4038837D1*
X728084Y4047173D1*
X726651Y4054374D1*
X725789Y4061664D1*
X725500Y4069000D1*
X725789Y4076336D1*
X726651Y4083626D1*
X728084Y4090827D1*
X730076Y4097894D1*
X732617Y4104781D1*
X735690Y4111448D1*
X739278Y4117853D1*
X743357Y4123958D1*
X747902Y4129723D1*
X752886Y4135114D1*
X758277Y4140098D1*
X764042Y4144643D1*
X770147Y4148722D1*
X776552Y4152310D1*
X786260Y4156504D1*
X506497Y4156500D1*
X506500Y481505D1*
X3881503Y481500D1*
X3881500Y3721722D1*
X3874257Y3713743D1*
X3867713Y3707694D1*
X3860714Y3702177D1*
X3853303Y3697226D1*
X3845528Y3692871D1*
X3837434Y3689139D1*
X3829073Y3686055D1*
X3820496Y3683636D1*
X3811756Y3681898D1*
X3802906Y3680850D1*
X3794000Y3680500D1*
X3785094Y3680850D1*
X3776244Y3681898D1*
X3767504Y3683636D1*
X3758927Y3686055D1*
X3750566Y3689139D1*
X3742472Y3692871D1*
X3734697Y3697226D1*
X3727286Y3702177D1*
X3723049Y3705517D1*
X3539689Y3705500D1*
X3531709Y3698961D1*
X3524143Y3693755D1*
X3516198Y3689148D1*
X3507920Y3685172D1*
X3499358Y3681846D1*
X3490566Y3679194D1*
X3481593Y3677231D1*
X3472497Y3675967D1*
X3463329Y3675411D1*
X3454147Y3675564D1*
X3445004Y3676429D1*
X3435955Y3677999D1*
X3427054Y3680264D1*
X3418356Y3683210D1*
X3409911Y3686820D1*
X3401772Y3691073D1*
X3393986Y3695944D1*
X3386598Y3701402D1*
X3379656Y3707415D1*
X3373201Y3713946D1*
X3367270Y3720959D1*
X3361899Y3728408D1*
X3357121Y3736252D1*
X3352963Y3744441D1*
X3349451Y3752928D1*
X3346608Y3761660D1*
X3344448Y3770587D1*
X3342986Y3779654D1*
X3342361Y3787197D1*
X3149108Y3980466D1*
X3140827Y3978084D1*
X3133626Y3976651D1*
X3126336Y3975789D1*
X3119000Y3975500D1*
X3111664Y3975789D1*
X3104374Y3976651D1*
X3097173Y3978084D1*
X3090106Y3980076D1*
X3083219Y3982617D1*
X3076552Y3985690D1*
X3070147Y3989278D1*
X3064042Y3993357D1*
X3058277Y3997902D1*
X3052886Y4002886D1*
X3047902Y4008277D1*
X3043357Y4014042D1*
X3039278Y4020147D1*
X3035690Y4026552D1*
X3032617Y4033219D1*
X3030076Y4040106D1*
X3028084Y4047173D1*
X3026651Y4054374D1*
X3025789Y4061664D1*
X3025500Y4069000D1*
X3025789Y4076336D1*
X3026651Y4083626D1*
X3028084Y4090827D1*
X3030076Y4097894D1*
X3032617Y4104781D1*
X3035690Y4111448D1*
X3039278Y4117853D1*
X3043357Y4123958D1*
X3047902Y4129723D1*
X3052886Y4135114D1*
X3058277Y4140098D1*
X3064042Y4144643D1*
X3070147Y4148722D1*
X3076552Y4152310D1*
X3086260Y4156504D1*
X2751986Y4156500D1*
X2761448Y4152310D1*
X2767853Y4148722D1*
X2773958Y4144643D1*
X2779723Y4140098D1*
X2785114Y4135114D1*
X2790098Y4129723D1*
X2794643Y4123958D1*
X2798722Y4117853D1*
X2802310Y4111448D1*
X2805383Y4104781D1*
X2807924Y4097894D1*
X2809916Y4090827D1*
X2811349Y4083626D1*
X2812211Y4076336D1*
X2812500Y4069000D1*
X2812211Y4061664D1*
X2811349Y4054374D1*
X2809916Y4047173D1*
X2807497Y4038950D1*
X2807500Y3912652D1*
X2837618Y3912618D1*
Y3675382D1*
X2807512D1*
X2807500Y3594000D1*
X2807227Y3587056D1*
X2806411Y3580156D1*
X2805055Y3573340D1*
X2803168Y3566652D1*
X2800764Y3560133D1*
X2797854Y3553822D1*
X2794459Y3547759D1*
X2790598Y3541982D1*
X2786297Y3536524D1*
X2775083Y3524925D1*
X2756636Y3506479D1*
X3008402Y3254756D1*
X3104744Y3254744D1*
Y3182509D1*
X3109894Y3194277D1*
X3114142Y3201864D1*
X3118972Y3209093D1*
X3124357Y3215923D1*
X3130259Y3222308D1*
X3136644Y3228210D1*
X3143474Y3233594D1*
X3150703Y3238425D1*
X3158290Y3242673D1*
X3166186Y3246314D1*
X3174345Y3249324D1*
X3182714Y3251684D1*
X3191243Y3253381D1*
X3199878Y3254403D1*
X3208567Y3254744D1*
X3217256Y3254403D1*
X3225891Y3253381D1*
X3234420Y3251684D1*
X3242789Y3249324D1*
X3250948Y3246314D1*
X3258844Y3242673D1*
X3266430Y3238425D1*
X3273660Y3233594D1*
X3280490Y3228210D1*
X3286875Y3222308D1*
X3292777Y3215923D1*
X3298161Y3209093D1*
X3302992Y3201864D1*
X3307240Y3194277D1*
X3310881Y3186381D1*
X3313891Y3178222D1*
X3316251Y3169853D1*
X3317948Y3161324D1*
X3318970Y3152689D1*
X3319311Y3144000D1*
X3318970Y3135311D1*
X3317948Y3126676D1*
X3316251Y3118147D1*
X3313891Y3109778D1*
X3310881Y3101619D1*
X3307240Y3093723D1*
X3302992Y3086136D1*
X3298161Y3078907D1*
X3292777Y3072077D1*
X3286875Y3065692D1*
X3280490Y3059790D1*
X3273660Y3054406D1*
X3266430Y3049575D1*
X3258844Y3045327D1*
X3250948Y3041686D1*
X3242789Y3038676D1*
X3234420Y3036316D1*
X3225891Y3034619D1*
X3217256Y3033597D1*
X3208567Y3033256D1*
X3199878Y3033597D1*
X3191243Y3034619D1*
X3182714Y3036316D1*
X3174345Y3038676D1*
X3166186Y3041686D1*
X3158290Y3045327D1*
X3150703Y3049575D1*
X3143474Y3054406D1*
X3136644Y3059790D1*
X3130259Y3065692D1*
X3124357Y3072077D1*
X3118972Y3078907D1*
X3114142Y3086136D1*
X3109894Y3093723D1*
X3104736Y3105731D1*
X3104744Y3033256D1*
X2883256D1*
Y3129605D1*
X2617774Y3395068D1*
X2520067Y3395067D1*
Y3592933D1*
X2592804D1*
X2630500Y3630745D1*
Y3675349D1*
X2600382Y3675382D1*
Y3912618D1*
X2630488D1*
X2630500Y4038837D1*
X2628084Y4047173D1*
X2626651Y4054374D1*
X2625789Y4061664D1*
X2625500Y4069000D1*
X2625789Y4076336D1*
X2626651Y4083626D1*
X2628084Y4090827D1*
X2630076Y4097894D1*
X2632617Y4104781D1*
X2635690Y4111448D1*
X2639278Y4117853D1*
X2643357Y4123958D1*
X2647902Y4129723D1*
X2652886Y4135114D1*
X2658277Y4140098D1*
X2664042Y4144643D1*
X2670147Y4148722D1*
X2676552Y4152310D1*
X2686260Y4156504D1*
X1299576Y4156411D1*
X1306392Y4155055D1*
X1313080Y4153168D1*
X1319600Y4150764D1*
X1325911Y4147854D1*
X1331974Y4144459D1*
X1337751Y4140598D1*
X1343209Y4136297D1*
X1354807Y4125083D1*
X1567466Y3912424D1*
X1580407Y3910975D1*
X1589398Y3909102D1*
X1598217Y3906539D1*
X1606811Y3903302D1*
X1615130Y3899409D1*
X1623122Y3894885D1*
X1630740Y3889756D1*
X1639596Y3882516D1*
X1847913Y3882500D1*
X1859697Y3890774D1*
X1867472Y3895129D1*
X1875566Y3898861D1*
X1883927Y3901945D1*
X1892504Y3904364D1*
X1901244Y3906102D1*
X1910094Y3907150D1*
X1919000Y3907500D1*
X1927906Y3907150D1*
X1936756Y3906102D1*
X1945496Y3904364D1*
X1954073Y3901945D1*
X1962434Y3898861D1*
X1970528Y3895129D1*
X1978303Y3890774D1*
X1985714Y3885823D1*
X1992713Y3880306D1*
X1999257Y3874257D1*
X2005306Y3867713D1*
X2010823Y3860714D1*
X2015774Y3853303D1*
X2020129Y3845528D1*
X2023861Y3837434D1*
X2026945Y3829073D1*
X2029364Y3820496D1*
X2031102Y3811756D1*
X2032150Y3802906D1*
X2032500Y3794000D1*
X2032150Y3785094D1*
X2031102Y3776244D1*
X2029364Y3767504D1*
X2026945Y3758927D1*
X2023861Y3750566D1*
X2020129Y3742472D1*
X2015774Y3734697D1*
X2010823Y3727286D1*
X2005306Y3720287D1*
X1999257Y3713743D1*
X1992713Y3707694D1*
X1985714Y3702177D1*
X1978303Y3697226D1*
X1970528Y3692871D1*
X1962434Y3689139D1*
X1954073Y3686055D1*
X1945496Y3683636D1*
X1936756Y3681898D1*
X1927906Y3680850D1*
X1919000Y3680500D1*
X1910094Y3680850D1*
X1901244Y3681898D1*
X1892504Y3683636D1*
X1883927Y3686055D1*
X1875566Y3689139D1*
X1867472Y3692871D1*
X1859697Y3697226D1*
X1852286Y3702177D1*
X1848049Y3705517D1*
X1639714Y3705500D1*
X1631709Y3698961D1*
X1624143Y3693755D1*
X1616198Y3689148D1*
X1607920Y3685172D1*
X1599358Y3681846D1*
X1590566Y3679194D1*
X1581593Y3677231D1*
X1572497Y3675967D1*
X1563329Y3675411D1*
X1554147Y3675564D1*
X1545004Y3676429D1*
X1535955Y3677999D1*
X1527054Y3680264D1*
X1518356Y3683210D1*
X1509911Y3686820D1*
X1501772Y3691073D1*
X1493986Y3695944D1*
X1486598Y3701402D1*
X1479656Y3707415D1*
X1473201Y3713946D1*
X1467270Y3720959D1*
X1461899Y3728408D1*
X1457121Y3736252D1*
X1452963Y3744441D1*
X1449451Y3752928D1*
X1446608Y3761660D1*
X1444448Y3770587D1*
X1442986Y3779654D1*
X1442361Y3787197D1*
X1249108Y3980466D1*
X1240827Y3978084D1*
X1233626Y3976651D1*
X1226336Y3975789D1*
X1219000Y3975500D1*
X1211664Y3975789D1*
X1204374Y3976651D1*
X1197173Y3978084D1*
X1190106Y3980076D1*
X1183219Y3982617D1*
X1176552Y3985690D1*
X1170147Y3989278D1*
X1164042Y3993357D1*
X1158277Y3997902D1*
X1152886Y4002886D1*
X1147902Y4008277D1*
X1143357Y4014042D1*
X1139278Y4020147D1*
X1135690Y4026552D1*
X1132617Y4033219D1*
X1130076Y4040106D1*
X1128084Y4047173D1*
X1126651Y4054374D1*
X1125789Y4061664D1*
X1125500Y4069000D1*
X1125789Y4076336D1*
X1126651Y4083626D1*
X1128084Y4090827D1*
X1130076Y4097894D1*
X1132617Y4104781D1*
X1135690Y4111448D1*
X1139278Y4117853D1*
X1143357Y4123958D1*
X1147902Y4129723D1*
X1152886Y4135114D1*
X1158277Y4140098D1*
X1164042Y4144643D1*
X1170147Y4148722D1*
X1176552Y4152310D1*
X1186260Y4156504D1*
X851990Y4156500D1*
X861448Y4152310D1*
X867853Y4148722D1*
X873958Y4144643D1*
X879723Y4140098D1*
X885114Y4135114D1*
X890098Y4129723D1*
X894643Y4123958D1*
X898722Y4117853D1*
X902310Y4111448D1*
X905383Y4104781D1*
X907924Y4097894D1*
X909916Y4090827D1*
X911349Y4083626D1*
X912211Y4076336D1*
X912500Y4069000D1*
X912211Y4061664D1*
X911349Y4054374D1*
X909916Y4047173D1*
X907497Y4038950D1*
X907500Y3912652D1*
X937618Y3912618D1*
Y3675382D1*
X907512D1*
X907500Y3594000D1*
X907227Y3587056D1*
X906411Y3580156D1*
X905055Y3573340D1*
X903169Y3566652D1*
X900764Y3560133D1*
X897854Y3553822D1*
X894459Y3547759D1*
X890598Y3541980D1*
X886297Y3536524D1*
X875083Y3524925D1*
X817916Y3467757D1*
X817933Y3445198D1*
X1008396Y3254761D1*
X1104744Y3254744D1*
Y3182509D1*
X1109894Y3194277D1*
X1114142Y3201864D1*
X1118972Y3209093D1*
X1124357Y3215923D1*
X1130259Y3222308D1*
X1136644Y3228210D1*
X1143474Y3233594D1*
X1150703Y3238425D1*
X1158290Y3242673D1*
X1166186Y3246314D1*
X1174345Y3249324D1*
X1182714Y3251684D1*
X1191243Y3253381D1*
X1199878Y3254403D1*
X1208567Y3254744D1*
X1217256Y3254403D1*
X1225891Y3253381D1*
X1234420Y3251684D1*
X1242789Y3249324D1*
X1250948Y3246314D1*
X1258844Y3242673D1*
X1266430Y3238425D1*
X1273660Y3233594D1*
X1280490Y3228210D1*
X1286875Y3222308D1*
X1292777Y3215923D1*
X1298161Y3209093D1*
X1302992Y3201864D1*
X1307240Y3194277D1*
X1310881Y3186381D1*
X1313891Y3178222D1*
X1315818Y3171390D1*
X1317810Y3178222D1*
X1320820Y3186381D1*
X1324461Y3194277D1*
X1328709Y3201864D1*
X1334655Y3210508D1*
X1334907Y3230077D1*
X1335723Y3236978D1*
X1337079Y3243794D1*
X1338966Y3250482D1*
X1341370Y3257001D1*
X1344280Y3263312D1*
X1347675Y3269375D1*
X1351535Y3275154D1*
X1355837Y3280610D1*
X1367051Y3292209D1*
X1595087Y3520244D1*
X1595067Y3592933D1*
X1792933D1*
Y3582491D1*
X1847907Y3582500D1*
X1859697Y3590774D1*
X1867472Y3595129D1*
X1875566Y3598861D1*
X1883927Y3601945D1*
X1892504Y3604364D1*
X1901244Y3606102D1*
X1910094Y3607150D1*
X1919000Y3607500D1*
X1927906Y3607150D1*
X1936756Y3606102D1*
X1945496Y3604364D1*
X1954073Y3601945D1*
X1962434Y3598861D1*
X1970528Y3595129D1*
X1978303Y3590774D1*
X1985714Y3585823D1*
X1992713Y3580306D1*
X1999257Y3574257D1*
X2005306Y3567713D1*
X2010823Y3560714D1*
X2015774Y3553303D1*
X2020129Y3545528D1*
X2023861Y3537434D1*
X2026945Y3529073D1*
X2029364Y3520496D1*
X2031102Y3511756D1*
X2032150Y3502906D1*
X2032500Y3494000D1*
X2032150Y3485094D1*
X2031102Y3476244D1*
X2029364Y3467504D1*
X2026945Y3458927D1*
X2023861Y3450566D1*
X2020129Y3442472D1*
X2015774Y3434697D1*
X2010823Y3427286D1*
X2005306Y3420287D1*
X1999257Y3413743D1*
X1992713Y3407694D1*
X1985714Y3402177D1*
X1978303Y3397226D1*
X1970528Y3392871D1*
X1962434Y3389139D1*
X1954073Y3386055D1*
X1945496Y3383636D1*
X1936756Y3381898D1*
X1927906Y3380850D1*
X1919000Y3380500D1*
X1910094Y3380850D1*
X1901244Y3381898D1*
X1892504Y3383636D1*
X1883927Y3386055D1*
X1875566Y3389139D1*
X1867472Y3392871D1*
X1859697Y3397226D1*
X1852286Y3402177D1*
X1848049Y3405517D1*
X1792938Y3405500D1*
X1792933Y3395067D1*
X1720196D1*
X1520982Y3195824D1*
X1525448Y3186381D1*
X1528458Y3178222D1*
X1530818Y3169853D1*
X1532514Y3161324D1*
X1533537Y3152689D1*
X1533878Y3144000D1*
X1533537Y3135311D1*
X1532514Y3126676D1*
X1530818Y3118147D1*
X1528458Y3109778D1*
X1525448Y3101619D1*
X1521807Y3093723D1*
X1517559Y3086136D1*
X1512728Y3078907D1*
X1507344Y3072077D1*
X1501442Y3065692D1*
X1495056Y3059790D1*
X1488227Y3054406D1*
X1480997Y3049575D1*
X1473411Y3045327D1*
X1465514Y3041686D1*
X1457356Y3038676D1*
X1448987Y3036316D1*
X1440458Y3034619D1*
X1431823Y3033597D1*
X1423134Y3033256D1*
X1414445Y3033597D1*
X1405810Y3034619D1*
X1397281Y3036316D1*
X1388912Y3038676D1*
X1380753Y3041686D1*
X1372857Y3045327D1*
X1365270Y3049575D1*
X1358041Y3054406D1*
X1351211Y3059790D1*
X1344825Y3065692D1*
X1338924Y3072077D1*
X1333539Y3078907D1*
X1328709Y3086136D1*
X1324461Y3093723D1*
X1320820Y3101619D1*
X1317810Y3109778D1*
X1315883Y3116610D1*
X1313891Y3109778D1*
X1310881Y3101619D1*
X1307240Y3093723D1*
X1302992Y3086136D1*
X1298161Y3078907D1*
X1292777Y3072077D1*
X1286875Y3065692D1*
X1280490Y3059790D1*
X1273660Y3054406D1*
X1266430Y3049575D1*
X1258844Y3045327D1*
X1250948Y3041686D1*
X1242789Y3038676D1*
X1234420Y3036316D1*
X1225891Y3034619D1*
X1217256Y3033597D1*
X1208567Y3033256D1*
X1199878Y3033597D1*
X1191243Y3034619D1*
X1182714Y3036316D1*
X1174345Y3038676D1*
X1166186Y3041686D1*
X1158290Y3045327D1*
X1150703Y3049575D1*
X1143474Y3054406D1*
X1136644Y3059790D1*
X1130259Y3065692D1*
X1124357Y3072077D1*
X1118972Y3078907D1*
X1114142Y3086136D1*
X1109894Y3093723D1*
X1104736Y3105731D1*
X1104744Y3033256D1*
X883256D1*
Y3129605D1*
X656421Y3356421D1*
X651703Y3361524D1*
X647402Y3366980D1*
X643541Y3372759D1*
X640146Y3378822D1*
X637236Y3385133D1*
X634824Y3391678D1*
X625020Y3395067D1*
X620067D1*
Y3592933D1*
X629253D1*
X1198210Y3405507D2*
X1191899Y3402597D1*
X1184612Y3399909D1*
X1177135Y3397801D1*
X1169516Y3396285D1*
X1161802Y3395371D1*
X1154039Y3395067D1*
X1146277Y3395371D1*
X1138563Y3396285D1*
X1130944Y3397801D1*
X1123467Y3399909D1*
X1116180Y3402597D1*
X1109125Y3405850D1*
X1102346Y3409646D1*
X1095888Y3413962D1*
X1089787Y3418770D1*
X1084083Y3424043D1*
X1078810Y3429748D1*
X1074001Y3435849D1*
X1069685Y3442307D1*
X1065890Y3449085D1*
X1062636Y3456140D1*
X1059949Y3463428D1*
X1057840Y3470904D1*
X1056324Y3478524D1*
X1055411Y3486238D1*
X1055106Y3494000D1*
X1055411Y3501762D1*
X1056324Y3509476D1*
X1057840Y3517096D1*
X1059949Y3524572D1*
X1062636Y3531860D1*
X1065890Y3538915D1*
X1069685Y3545693D1*
X1074001Y3552151D1*
X1078810Y3558252D1*
X1084083Y3563957D1*
X1089787Y3569230D1*
X1095888Y3574038D1*
X1102346Y3578354D1*
X1109125Y3582150D1*
X1116180Y3585403D1*
X1123467Y3588091D1*
X1130944Y3590199D1*
X1138563Y3591715D1*
X1146277Y3592629D1*
X1154039Y3592933D1*
X1161802Y3592629D1*
X1169516Y3591715D1*
X1177135Y3590199D1*
X1184612Y3588091D1*
X1191899Y3585403D1*
X1198210Y3582493D1*
X1214719Y3582500D1*
X1221101Y3585403D1*
X1228388Y3588091D1*
X1235865Y3590199D1*
X1243484Y3591715D1*
X1251198Y3592629D1*
X1258961Y3592933D1*
X1266723Y3592629D1*
X1274437Y3591715D1*
X1282056Y3590199D1*
X1289533Y3588091D1*
X1296820Y3585403D1*
X1303875Y3582150D1*
X1310654Y3578354D1*
X1317112Y3574038D1*
X1323213Y3569230D1*
X1328917Y3563957D1*
X1334190Y3558252D1*
X1338999Y3552151D1*
X1343315Y3545693D1*
X1347110Y3538915D1*
X1350364Y3531860D1*
X1353051Y3524572D1*
X1355160Y3517096D1*
X1356676Y3509476D1*
X1357589Y3501762D1*
X1357894Y3494000D1*
X1357589Y3486238D1*
X1356676Y3478524D1*
X1355160Y3470904D1*
X1353051Y3463428D1*
X1350364Y3456140D1*
X1347110Y3449085D1*
X1343315Y3442307D1*
X1338999Y3435849D1*
X1334190Y3429748D1*
X1328917Y3424043D1*
X1323213Y3418770D1*
X1317112Y3413962D1*
X1310654Y3409646D1*
X1303875Y3405850D1*
X1296820Y3402597D1*
X1289533Y3399909D1*
X1282056Y3397801D1*
X1274437Y3396285D1*
X1266723Y3395371D1*
X1258961Y3395067D1*
X1251198Y3395371D1*
X1243484Y3396285D1*
X1235865Y3397801D1*
X1228388Y3399909D1*
X1221101Y3402597D1*
X1214790Y3405507D1*
X1198281Y3405500D1*
X3098210Y3405507D2*
X3091899Y3402597D1*
X3084612Y3399909D1*
X3077135Y3397801D1*
X3069516Y3396285D1*
X3061802Y3395371D1*
X3054039Y3395067D1*
X3046277Y3395371D1*
X3038563Y3396285D1*
X3030944Y3397801D1*
X3023467Y3399909D1*
X3016180Y3402597D1*
X3009125Y3405850D1*
X3002346Y3409646D1*
X2995888Y3413962D1*
X2989787Y3418770D1*
X2984083Y3424043D1*
X2978810Y3429748D1*
X2974001Y3435849D1*
X2969685Y3442307D1*
X2965890Y3449085D1*
X2962636Y3456140D1*
X2959949Y3463428D1*
X2957840Y3470904D1*
X2956324Y3478524D1*
X2955411Y3486238D1*
X2955106Y3494000D1*
X2955411Y3501762D1*
X2956324Y3509476D1*
X2957840Y3517096D1*
X2959949Y3524572D1*
X2962636Y3531860D1*
X2965890Y3538915D1*
X2969685Y3545693D1*
X2974001Y3552151D1*
X2978810Y3558252D1*
X2984083Y3563957D1*
X2989787Y3569230D1*
X2995888Y3574038D1*
X3002346Y3578354D1*
X3009125Y3582150D1*
X3016180Y3585403D1*
X3023467Y3588091D1*
X3030944Y3590199D1*
X3038563Y3591715D1*
X3046277Y3592629D1*
X3054039Y3592933D1*
X3061802Y3592629D1*
X3069516Y3591715D1*
X3077135Y3590199D1*
X3084612Y3588091D1*
X3091899Y3585403D1*
X3098210Y3582493D1*
X3114719Y3582500D1*
X3121101Y3585403D1*
X3128388Y3588091D1*
X3135865Y3590199D1*
X3143484Y3591715D1*
X3151198Y3592629D1*
X3158961Y3592933D1*
X3166723Y3592629D1*
X3174437Y3591715D1*
X3182056Y3590199D1*
X3189533Y3588091D1*
X3196820Y3585403D1*
X3203875Y3582150D1*
X3210654Y3578354D1*
X3217112Y3574038D1*
X3223213Y3569230D1*
X3228917Y3563957D1*
X3234190Y3558252D1*
X3238999Y3552151D1*
X3243315Y3545693D1*
X3247110Y3538915D1*
X3250364Y3531860D1*
X3253051Y3524572D1*
X3255160Y3517096D1*
X3256676Y3509476D1*
X3257589Y3501762D1*
X3257894Y3494000D1*
X3257589Y3486238D1*
X3256676Y3478524D1*
X3255160Y3470904D1*
X3253051Y3463428D1*
X3250364Y3456140D1*
X3247110Y3449085D1*
X3243315Y3442307D1*
X3238999Y3435849D1*
X3234190Y3429748D1*
X3228917Y3424043D1*
X3223213Y3418770D1*
X3217112Y3413962D1*
X3210654Y3409646D1*
X3203875Y3405850D1*
X3196820Y3402597D1*
X3189533Y3399909D1*
X3182056Y3397801D1*
X3174437Y3396285D1*
X3166723Y3395371D1*
X3158961Y3395067D1*
X3151198Y3395371D1*
X3143484Y3396285D1*
X3135865Y3397801D1*
X3128388Y3399909D1*
X3121101Y3402597D1*
X3114790Y3405507D1*
X3098281Y3405500D1*
X3467535Y3912337D2*
X3480407Y3910975D1*
X3489398Y3909102D1*
X3498217Y3906539D1*
X3506811Y3903302D1*
X3515130Y3899409D1*
X3523122Y3894885D1*
X3530740Y3889756D1*
X3539596Y3882516D1*
X3722938Y3882500D1*
X3734697Y3890774D1*
X3742472Y3895129D1*
X3750566Y3898861D1*
X3758927Y3901945D1*
X3767504Y3904364D1*
X3776244Y3906102D1*
X3785094Y3907150D1*
X3794000Y3907500D1*
X3802906Y3907150D1*
X3811756Y3906102D1*
X3820496Y3904364D1*
X3829073Y3901945D1*
X3837434Y3898861D1*
X3845528Y3895129D1*
X3853303Y3890774D1*
X3860714Y3885823D1*
X3867713Y3880306D1*
X3874257Y3874257D1*
X3881491Y3866209D1*
X3881500Y4156495D1*
X3199576Y4156411D1*
X3206392Y4155055D1*
X3213080Y4153168D1*
X3219600Y4150764D1*
X3225911Y4147854D1*
X3231974Y4144459D1*
X3237752Y4140598D1*
X3243209Y4136297D1*
X3254807Y4125083D1*
X3467466Y3912424D1*
X1680500Y2770534D2*
X1674257Y2763743D1*
X1667713Y2757694D1*
X1660714Y2752177D1*
X1653303Y2747226D1*
X1645528Y2742871D1*
X1637434Y2739139D1*
X1629073Y2736055D1*
X1620496Y2733636D1*
X1611756Y2731898D1*
X1602906Y2730850D1*
X1594000Y2730500D1*
X1585094Y2730850D1*
X1576244Y2731898D1*
X1567504Y2733636D1*
X1558927Y2736055D1*
X1550566Y2739139D1*
X1542472Y2742871D1*
X1534697Y2747226D1*
X1527286Y2752177D1*
X1520287Y2757694D1*
X1513743Y2763743D1*
X1507694Y2770287D1*
X1502177Y2777286D1*
X1497226Y2784697D1*
X1492871Y2792472D1*
X1489139Y2800566D1*
X1486055Y2808927D1*
X1483636Y2817504D1*
X1481898Y2826244D1*
X1480850Y2835094D1*
X1480500Y2844000D1*
X1480850Y2852906D1*
X1481898Y2861756D1*
X1483636Y2870496D1*
X1486055Y2879073D1*
X1489139Y2887434D1*
X1492871Y2895528D1*
X1497226Y2903303D1*
X1502177Y2910714D1*
X1507694Y2917713D1*
X1513743Y2924257D1*
X1520287Y2930306D1*
X1527286Y2935823D1*
X1534697Y2940774D1*
X1542472Y2945129D1*
X1550566Y2948861D1*
X1558927Y2951945D1*
X1567504Y2954364D1*
X1576244Y2956102D1*
X1585094Y2957150D1*
X1594000Y2957500D1*
X1602906Y2957150D1*
X1611756Y2956102D1*
X1620496Y2954364D1*
X1629073Y2951945D1*
X1637434Y2948861D1*
X1645528Y2945129D1*
X1653303Y2940774D1*
X1660714Y2935823D1*
X1667713Y2930306D1*
X1674257Y2924257D1*
X1680500Y2917466D1*
Y2957500D1*
X1907500D1*
Y2730500D1*
X1680500D1*
Y2770510D1*
X1039686Y2957500D2*
X1257500D1*
Y2730500D1*
X1030500D1*
Y2957500D1*
X1039686D1*
X2180500Y2770534D2*
X2174257Y2763743D1*
X2167713Y2757694D1*
X2160714Y2752177D1*
X2153303Y2747226D1*
X2145528Y2742871D1*
X2137434Y2739139D1*
X2129073Y2736055D1*
X2120496Y2733636D1*
X2111756Y2731898D1*
X2102906Y2730850D1*
X2094000Y2730500D1*
X2085094Y2730850D1*
X2076244Y2731898D1*
X2067504Y2733636D1*
X2058927Y2736055D1*
X2050566Y2739139D1*
X2042472Y2742871D1*
X2034697Y2747226D1*
X2027286Y2752177D1*
X2020287Y2757694D1*
X2013743Y2763743D1*
X2007694Y2770287D1*
X2002177Y2777286D1*
X1997226Y2784697D1*
X1992871Y2792472D1*
X1989139Y2800566D1*
X1986055Y2808927D1*
X1983636Y2817504D1*
X1981898Y2826244D1*
X1980850Y2835094D1*
X1980500Y2844000D1*
X1980850Y2852906D1*
X1981898Y2861756D1*
X1983636Y2870496D1*
X1986055Y2879073D1*
X1989139Y2887434D1*
X1992871Y2895528D1*
X1997226Y2903303D1*
X2002177Y2910714D1*
X2007694Y2917713D1*
X2013743Y2924257D1*
X2020287Y2930306D1*
X2027286Y2935823D1*
X2034697Y2940774D1*
X2042472Y2945129D1*
X2050566Y2948861D1*
X2058927Y2951945D1*
X2067504Y2954364D1*
X2076244Y2956102D1*
X2085094Y2957150D1*
X2094000Y2957500D1*
X2102906Y2957150D1*
X2111756Y2956102D1*
X2120496Y2954364D1*
X2129073Y2951945D1*
X2137434Y2948861D1*
X2145528Y2945129D1*
X2153303Y2940774D1*
X2160714Y2935823D1*
X2167713Y2930306D1*
X2174257Y2924257D1*
X2180500Y2917466D1*
Y2957500D1*
X2407500D1*
Y2730500D1*
X2180500D1*
Y2770510D1*
X2680500Y2770534D2*
X2674257Y2763743D1*
X2667713Y2757694D1*
X2660714Y2752177D1*
X2653303Y2747226D1*
X2645528Y2742871D1*
X2637434Y2739139D1*
X2629073Y2736055D1*
X2620496Y2733636D1*
X2611756Y2731898D1*
X2602906Y2730850D1*
X2594000Y2730500D1*
X2585094Y2730850D1*
X2576244Y2731898D1*
X2567504Y2733636D1*
X2558927Y2736055D1*
X2550566Y2739139D1*
X2542472Y2742871D1*
X2534697Y2747226D1*
X2527286Y2752177D1*
X2520287Y2757694D1*
X2513743Y2763743D1*
X2507694Y2770287D1*
X2502177Y2777286D1*
X2497226Y2784697D1*
X2492871Y2792472D1*
X2489139Y2800566D1*
X2486055Y2808927D1*
X2483636Y2817504D1*
X2481898Y2826244D1*
X2480850Y2835094D1*
X2480500Y2844000D1*
X2480850Y2852906D1*
X2481898Y2861756D1*
X2483636Y2870496D1*
X2486055Y2879073D1*
X2489139Y2887434D1*
X2492871Y2895528D1*
X2497226Y2903303D1*
X2502177Y2910714D1*
X2507694Y2917713D1*
X2513743Y2924257D1*
X2520287Y2930306D1*
X2527286Y2935823D1*
X2534697Y2940774D1*
X2542472Y2945129D1*
X2550566Y2948861D1*
X2558927Y2951945D1*
X2567504Y2954364D1*
X2576244Y2956102D1*
X2585094Y2957150D1*
X2594000Y2957500D1*
X2602906Y2957150D1*
X2611756Y2956102D1*
X2620496Y2954364D1*
X2629073Y2951945D1*
X2637434Y2948861D1*
X2645528Y2945129D1*
X2653303Y2940774D1*
X2660714Y2935823D1*
X2667713Y2930306D1*
X2674257Y2924257D1*
X2680500Y2917466D1*
Y2957500D1*
X2907500D1*
Y2730500D1*
X2680500D1*
Y2770510D1*
X1557150Y1660094D2*
X1556102Y1651244D1*
X1554364Y1642504D1*
X1551945Y1633927D1*
X1548861Y1625566D1*
X1545129Y1617472D1*
X1540774Y1609697D1*
X1535823Y1602286D1*
X1530306Y1595287D1*
X1524257Y1588743D1*
X1517713Y1582694D1*
X1510714Y1577177D1*
X1503303Y1572226D1*
X1495528Y1567871D1*
X1487434Y1564139D1*
X1479073Y1561055D1*
X1470496Y1558636D1*
X1461756Y1556898D1*
X1452906Y1555850D1*
X1444000Y1555500D1*
X1435094Y1555850D1*
X1426244Y1556898D1*
X1417504Y1558636D1*
X1408927Y1561055D1*
X1400566Y1564139D1*
X1392472Y1567871D1*
X1384697Y1572226D1*
X1377286Y1577177D1*
X1370287Y1582694D1*
X1363743Y1588743D1*
X1357694Y1595287D1*
X1352177Y1602286D1*
X1347226Y1609697D1*
X1342871Y1617472D1*
X1339139Y1625566D1*
X1336055Y1633927D1*
X1333636Y1642504D1*
X1331898Y1651244D1*
X1330850Y1660094D1*
X1330500Y1669000D1*
X1330850Y1677906D1*
X1331898Y1686756D1*
X1333636Y1695496D1*
X1336055Y1704073D1*
X1339139Y1712434D1*
X1342871Y1720528D1*
X1347226Y1728303D1*
X1352177Y1735714D1*
X1357694Y1742713D1*
X1363743Y1749257D1*
X1370287Y1755306D1*
X1377286Y1760823D1*
X1384697Y1765774D1*
X1392472Y1770129D1*
X1400566Y1773861D1*
X1408927Y1776945D1*
X1417504Y1779364D1*
X1426244Y1781102D1*
X1435094Y1782150D1*
X1444000Y1782500D1*
X1452906Y1782150D1*
X1461756Y1781102D1*
X1470496Y1779364D1*
X1479073Y1776945D1*
X1487434Y1773861D1*
X1495528Y1770129D1*
X1503303Y1765774D1*
X1510714Y1760823D1*
X1517713Y1755306D1*
X1524257Y1749257D1*
X1530306Y1742713D1*
X1535823Y1735714D1*
X1540774Y1728303D1*
X1545129Y1720528D1*
X1548861Y1712434D1*
X1551945Y1704073D1*
X1554364Y1695496D1*
X1556102Y1686756D1*
X1557150Y1677906D1*
X1557500Y1669000D1*
X1557150Y1660094D1*
X2457340Y2409815D2*
X2456060Y2391491D1*
X2453507Y2373301D1*
X2449693Y2355332D1*
X2444635Y2337673D1*
X2438361Y2320409D1*
X2430898Y2303623D1*
X2422285Y2287400D1*
X2412560Y2271815D1*
X2401776Y2256946D1*
X2389980Y2242864D1*
X2377234Y2229638D1*
X2363596Y2217333D1*
X2349134Y2206007D1*
X2333917Y2195717D1*
X2318021Y2186512D1*
X2301522Y2178436D1*
X2284501Y2171529D1*
X2267041Y2165825D1*
X2249224Y2161352D1*
X2231140Y2158131D1*
X2212875Y2156177D1*
X2194518Y2155500D1*
X2176160Y2156105D1*
X2157887Y2157987D1*
X2139791Y2161136D1*
X2121957Y2165539D1*
X2104474Y2171175D1*
X2087425Y2178014D1*
X2070895Y2186025D1*
X2054963Y2195167D1*
X2039707Y2205398D1*
X2025201Y2216667D1*
X2011514Y2228919D1*
X1998715Y2242093D1*
X1986865Y2256129D1*
X1976021Y2270955D1*
X1966236Y2286501D1*
X1957559Y2302692D1*
X1950030Y2319448D1*
X1943686Y2336686D1*
X1938560Y2354325D1*
X1934675Y2372278D1*
X1932050Y2390459D1*
X1930698Y2408778D1*
X1930626Y2427147D1*
X1931833Y2445476D1*
X1934315Y2463677D1*
X1938059Y2481660D1*
X1943046Y2499340D1*
X1949253Y2516627D1*
X1956650Y2533442D1*
X1965199Y2549699D1*
X1974861Y2565323D1*
X1985588Y2580235D1*
X1997327Y2594362D1*
X2010022Y2607638D1*
X2023612Y2619997D1*
X2038029Y2631381D1*
X2053205Y2641731D1*
X2069064Y2650999D1*
X2085530Y2659139D1*
X2102525Y2666113D1*
X2119963Y2671885D1*
X2137761Y2676428D1*
X2155832Y2679720D1*
X2174089Y2681747D1*
X2192444Y2682495D1*
X2210804Y2681963D1*
X2229084Y2680154D1*
X2247193Y2677075D1*
X2265043Y2672741D1*
X2282549Y2667176D1*
X2299625Y2660404D1*
X2316186Y2652458D1*
X2332154Y2643379D1*
X2347450Y2633209D1*
X2362001Y2621997D1*
X2375736Y2609799D1*
X2388587Y2596675D1*
X2400492Y2582686D1*
X2411395Y2567902D1*
X2421240Y2552395D1*
X2429982Y2536239D1*
X2437576Y2519513D1*
X2443987Y2502299D1*
X2449182Y2484681D1*
X2453139Y2466743D1*
X2455835Y2448572D1*
X2457260Y2430259D1*
X2457500Y2419000D1*
X2457340Y2409815D1*
Y1209815D2*
X2456060Y1191491D1*
X2453507Y1173301D1*
X2449693Y1155332D1*
X2444635Y1137673D1*
X2438361Y1120409D1*
X2430898Y1103623D1*
X2422285Y1087400D1*
X2412560Y1071815D1*
X2401776Y1056946D1*
X2389980Y1042864D1*
X2377234Y1029638D1*
X2363596Y1017333D1*
X2349134Y1006007D1*
X2333917Y995717D1*
X2318021Y986512D1*
X2301522Y978436D1*
X2284501Y971529D1*
X2267041Y965825D1*
X2249224Y961352D1*
X2231140Y958131D1*
X2212875Y956177D1*
X2194518Y955500D1*
X2176160Y956105D1*
X2157887Y957987D1*
X2139791Y961136D1*
X2121957Y965539D1*
X2104474Y971175D1*
X2087425Y978014D1*
X2070895Y986025D1*
X2054963Y995167D1*
X2039707Y1005398D1*
X2025201Y1016667D1*
X2011514Y1028919D1*
X1998715Y1042093D1*
X1986865Y1056129D1*
X1976021Y1070955D1*
X1966236Y1086501D1*
X1957559Y1102692D1*
X1950030Y1119448D1*
X1943686Y1136686D1*
X1938560Y1154325D1*
X1934675Y1172278D1*
X1932050Y1190459D1*
X1930698Y1208778D1*
X1930626Y1227147D1*
X1931833Y1245476D1*
X1934315Y1263677D1*
X1938059Y1281660D1*
X1943046Y1299340D1*
X1949253Y1316627D1*
X1956650Y1333442D1*
X1965199Y1349699D1*
X1974861Y1365323D1*
X1985588Y1380235D1*
X1997327Y1394362D1*
X2010022Y1407638D1*
X2023612Y1419997D1*
X2038029Y1431381D1*
X2053205Y1441731D1*
X2069064Y1450999D1*
X2085530Y1459139D1*
X2102525Y1466113D1*
X2119963Y1471885D1*
X2137761Y1476428D1*
X2155832Y1479720D1*
X2174089Y1481747D1*
X2192444Y1482495D1*
X2210804Y1481963D1*
X2229084Y1480154D1*
X2247193Y1477075D1*
X2265043Y1472741D1*
X2282549Y1467176D1*
X2299625Y1460404D1*
X2316186Y1452458D1*
X2332154Y1443379D1*
X2347450Y1433209D1*
X2362001Y1421997D1*
X2375736Y1409799D1*
X2388587Y1396675D1*
X2400492Y1382686D1*
X2411395Y1367902D1*
X2421240Y1352395D1*
X2429982Y1336239D1*
X2437576Y1319513D1*
X2443987Y1302299D1*
X2449182Y1284681D1*
X2453139Y1266743D1*
X2455835Y1248572D1*
X2457260Y1230259D1*
X2457500Y1219000D1*
X2457340Y1209815D1*
X2007150Y1660094D2*
X2006102Y1651244D1*
X2004364Y1642504D1*
X2001945Y1633927D1*
X1998861Y1625566D1*
X1995129Y1617472D1*
X1990774Y1609697D1*
X1985823Y1602286D1*
X1980306Y1595287D1*
X1974257Y1588743D1*
X1967713Y1582694D1*
X1960714Y1577177D1*
X1953303Y1572226D1*
X1945528Y1567871D1*
X1937434Y1564139D1*
X1929073Y1561055D1*
X1920496Y1558636D1*
X1911756Y1556898D1*
X1902906Y1555850D1*
X1894000Y1555500D1*
X1885094Y1555850D1*
X1876244Y1556898D1*
X1867504Y1558636D1*
X1858927Y1561055D1*
X1850566Y1564139D1*
X1842472Y1567871D1*
X1834697Y1572226D1*
X1827286Y1577177D1*
X1820287Y1582694D1*
X1813743Y1588743D1*
X1807694Y1595287D1*
X1802177Y1602286D1*
X1797226Y1609697D1*
X1792871Y1617472D1*
X1789139Y1625566D1*
X1786055Y1633927D1*
X1783636Y1642504D1*
X1781898Y1651244D1*
X1780850Y1660094D1*
X1780500Y1669000D1*
X1780850Y1677906D1*
X1781898Y1686756D1*
X1783636Y1695496D1*
X1786055Y1704073D1*
X1789139Y1712434D1*
X1792871Y1720528D1*
X1797226Y1728303D1*
X1802177Y1735714D1*
X1807694Y1742713D1*
X1813743Y1749257D1*
X1820287Y1755306D1*
X1827286Y1760823D1*
X1834697Y1765774D1*
X1842472Y1770129D1*
X1850566Y1773861D1*
X1858927Y1776945D1*
X1867504Y1779364D1*
X1876244Y1781102D1*
X1885094Y1782150D1*
X1894000Y1782500D1*
X1902906Y1782150D1*
X1911756Y1781102D1*
X1920496Y1779364D1*
X1929073Y1776945D1*
X1937434Y1773861D1*
X1945528Y1770129D1*
X1953303Y1765774D1*
X1960714Y1760823D1*
X1967713Y1755306D1*
X1974257Y1749257D1*
X1980306Y1742713D1*
X1985823Y1735714D1*
X1990774Y1728303D1*
X1995129Y1720528D1*
X1998861Y1712434D1*
X2001945Y1704073D1*
X2004364Y1695496D1*
X2006102Y1686756D1*
X2007150Y1677906D1*
X2007500Y1669000D1*
X2007150Y1660094D1*
X907150D2*
X906102Y1651244D1*
X904364Y1642504D1*
X901945Y1633927D1*
X898861Y1625566D1*
X895129Y1617472D1*
X890774Y1609697D1*
X885823Y1602286D1*
X880306Y1595287D1*
X874257Y1588743D1*
X867713Y1582694D1*
X860714Y1577177D1*
X853303Y1572226D1*
X845528Y1567871D1*
X837434Y1564139D1*
X829073Y1561055D1*
X820496Y1558636D1*
X811756Y1556898D1*
X802906Y1555850D1*
X794000Y1555500D1*
X785094Y1555850D1*
X776244Y1556898D1*
X767504Y1558636D1*
X758927Y1561055D1*
X750566Y1564139D1*
X742472Y1567871D1*
X734697Y1572226D1*
X727286Y1577177D1*
X720287Y1582694D1*
X713743Y1588743D1*
X707694Y1595287D1*
X702177Y1602286D1*
X697226Y1609697D1*
X692871Y1617472D1*
X689139Y1625566D1*
X686055Y1633927D1*
X683636Y1642504D1*
X681898Y1651244D1*
X680850Y1660094D1*
X680500Y1669000D1*
X680850Y1677906D1*
X681898Y1686756D1*
X683636Y1695496D1*
X686055Y1704073D1*
X689139Y1712434D1*
X692871Y1720528D1*
X697226Y1728303D1*
X702177Y1735714D1*
X707694Y1742713D1*
X713743Y1749257D1*
X720287Y1755306D1*
X727286Y1760823D1*
X734697Y1765774D1*
X742472Y1770129D1*
X750566Y1773861D1*
X758927Y1776945D1*
X767504Y1779364D1*
X776244Y1781102D1*
X785094Y1782150D1*
X794000Y1782500D1*
X802906Y1782150D1*
X811756Y1781102D1*
X820496Y1779364D1*
X829073Y1776945D1*
X837434Y1773861D1*
X845528Y1770129D1*
X853303Y1765774D1*
X860714Y1760823D1*
X867713Y1755306D1*
X874257Y1749257D1*
X880306Y1742713D1*
X885823Y1735714D1*
X890774Y1728303D1*
X895129Y1720528D1*
X898861Y1712434D1*
X901945Y1704073D1*
X904364Y1695496D1*
X906102Y1686756D1*
X907150Y1677906D1*
X907500Y1669000D1*
X907150Y1660094D1*
X2607150D2*
X2606102Y1651244D1*
X2604364Y1642504D1*
X2601945Y1633927D1*
X2598861Y1625566D1*
X2595129Y1617472D1*
X2590774Y1609697D1*
X2585823Y1602286D1*
X2580306Y1595287D1*
X2574257Y1588743D1*
X2567713Y1582694D1*
X2560714Y1577177D1*
X2553303Y1572226D1*
X2545528Y1567871D1*
X2537434Y1564139D1*
X2529073Y1561055D1*
X2520496Y1558636D1*
X2511756Y1556898D1*
X2502906Y1555850D1*
X2494000Y1555500D1*
X2485094Y1555850D1*
X2476244Y1556898D1*
X2467504Y1558636D1*
X2458927Y1561055D1*
X2450566Y1564139D1*
X2442472Y1567871D1*
X2434697Y1572226D1*
X2427286Y1577177D1*
X2420287Y1582694D1*
X2413743Y1588743D1*
X2407694Y1595287D1*
X2402177Y1602286D1*
X2397226Y1609697D1*
X2392871Y1617472D1*
X2389139Y1625566D1*
X2386055Y1633927D1*
X2383636Y1642504D1*
X2381898Y1651244D1*
X2380850Y1660094D1*
X2380500Y1669000D1*
X2380850Y1677906D1*
X2381898Y1686756D1*
X2383636Y1695496D1*
X2386055Y1704073D1*
X2389139Y1712434D1*
X2392871Y1720528D1*
X2397226Y1728303D1*
X2402177Y1735714D1*
X2407694Y1742713D1*
X2413743Y1749257D1*
X2420287Y1755306D1*
X2427286Y1760823D1*
X2434697Y1765774D1*
X2442472Y1770129D1*
X2450566Y1773861D1*
X2458927Y1776945D1*
X2467504Y1779364D1*
X2476244Y1781102D1*
X2485094Y1782150D1*
X2494000Y1782500D1*
X2502906Y1782150D1*
X2511756Y1781102D1*
X2520496Y1779364D1*
X2529073Y1776945D1*
X2537434Y1773861D1*
X2545528Y1770129D1*
X2553303Y1765774D1*
X2560714Y1760823D1*
X2567713Y1755306D1*
X2574257Y1749257D1*
X2580306Y1742713D1*
X2585823Y1735714D1*
X2590774Y1728303D1*
X2595129Y1720528D1*
X2598861Y1712434D1*
X2601945Y1704073D1*
X2604364Y1695496D1*
X2606102Y1686756D1*
X2607150Y1677906D1*
X2607500Y1669000D1*
X2607150Y1660094D1*
X1357340Y859815D2*
X1356060Y841491D1*
X1353507Y823301D1*
X1349693Y805332D1*
X1344635Y787673D1*
X1338361Y770409D1*
X1330898Y753623D1*
X1322285Y737400D1*
X1312560Y721815D1*
X1301776Y706946D1*
X1289980Y692864D1*
X1277234Y679638D1*
X1263596Y667333D1*
X1249134Y656007D1*
X1233917Y645717D1*
X1218021Y636512D1*
X1201522Y628436D1*
X1184501Y621529D1*
X1167041Y615825D1*
X1149224Y611352D1*
X1131140Y608131D1*
X1112875Y606177D1*
X1094518Y605500D1*
X1076160Y606105D1*
X1057887Y607987D1*
X1039791Y611136D1*
X1021957Y615539D1*
X1004474Y621175D1*
X987425Y628014D1*
X970895Y636025D1*
X954963Y645167D1*
X939707Y655398D1*
X925201Y666667D1*
X911514Y678919D1*
X898715Y692093D1*
X886865Y706129D1*
X876021Y720955D1*
X866236Y736501D1*
X857559Y752692D1*
X850030Y769448D1*
X843686Y786686D1*
X838560Y804325D1*
X834675Y822278D1*
X832050Y840459D1*
X830698Y858778D1*
X830626Y877147D1*
X831833Y895476D1*
X834315Y913677D1*
X838059Y931660D1*
X843046Y949340D1*
X849253Y966627D1*
X856650Y983442D1*
X865199Y999699D1*
X874861Y1015323D1*
X885588Y1030235D1*
X897327Y1044362D1*
X910022Y1057638D1*
X923612Y1069997D1*
X938029Y1081381D1*
X953205Y1091731D1*
X969064Y1100999D1*
X985530Y1109139D1*
X1002525Y1116113D1*
X1019963Y1121885D1*
X1037761Y1126428D1*
X1055832Y1129720D1*
X1074089Y1131747D1*
X1092444Y1132495D1*
X1110804Y1131963D1*
X1129084Y1130154D1*
X1147193Y1127075D1*
X1165043Y1122741D1*
X1182549Y1117176D1*
X1199625Y1110404D1*
X1216186Y1102458D1*
X1232154Y1093379D1*
X1247450Y1083209D1*
X1262001Y1071997D1*
X1275736Y1059799D1*
X1288587Y1046675D1*
X1300492Y1032686D1*
X1311395Y1017902D1*
X1321240Y1002395D1*
X1329982Y986239D1*
X1337576Y969513D1*
X1343987Y952299D1*
X1349182Y934681D1*
X1353139Y916743D1*
X1355835Y898572D1*
X1357260Y880259D1*
X1357500Y869000D1*
X1357340Y859815D1*
D20*
X719000Y3494000D3*
D21*
X1154039D3*
D20*
X1694000D3*
D21*
X1258961D3*
D20*
X2619000D3*
D21*
X3054039D3*
D20*
X3594000D3*
D21*
X3158961D3*
D22*
X2719000Y3794000D3*
D23*
X3460732D3*
D22*
X819000D3*
D23*
X1560732D3*
D24*
X1594000Y2844000D3*
D25*
X1144000D3*
D24*
X2094000D3*
D25*
X1794000D3*
D24*
X2594000D3*
D25*
X2294000D3*
D24*
X3094000D3*
D25*
X2794000D3*
D24*
X1444000Y1669000D3*
X2931500D3*
X1919000Y3794000D3*
X3794000Y3494000D3*
D26*
X2194000Y2419000D3*
Y1219000D3*
D24*
X1894000Y1669000D3*
X794000D3*
X3594000D3*
X2494000D3*
D26*
X1094000Y869000D3*
X3294000D3*
D24*
X1919000Y3494000D3*
X3794000Y3794000D3*
D27*
X1219000Y4069000D3*
D28*
X819000D3*
D27*
X3119000D3*
D28*
X2719000D3*
D29*
X994000Y3144000D3*
D30*
X1208567D3*
X1423134D3*
D29*
X2994000D3*
D30*
X3208567D3*
X3423134D3*
M02*
