G04 DipTrace 3.1.0.1*
G04 BottomSilk.gbr*
%MOIN*%
G04 #@! TF.FileFunction,Legend,Bot*
G04 #@! TF.Part,Single*
%ADD19C,0.001312*%
%ADD61C,0.015439*%
%FSLAX26Y26*%
G04*
G70*
G90*
G75*
G01*
G04 BotSilk*
%LPD*%
X1344000Y2019000D2*
D19*
X3044000D1*
Y1319000D1*
X1344000D1*
Y2019000D1*
X2585765Y1948568D2*
D61*
X2576148Y1953432D1*
X2561778Y1967691D1*
Y1867322D1*
X2502159Y1967691D2*
X2516529Y1962938D1*
X2526146Y1948568D1*
X2530899Y1924692D1*
Y1910321D1*
X2526146Y1886445D1*
X2516529Y1872075D1*
X2502159Y1867322D1*
X2492653D1*
X2478283Y1872075D1*
X2468777Y1886445D1*
X2463913Y1910321D1*
Y1924692D1*
X2468777Y1948568D1*
X2478283Y1962938D1*
X2492653Y1967691D1*
X2502159D1*
X2468777Y1948568D2*
X2526146Y1886445D1*
X2433034Y1934308D2*
Y1886445D1*
X2428281Y1872185D1*
X2418664Y1867322D1*
X2404294D1*
X2394788Y1872185D1*
X2380418Y1886445D1*
Y1934308D2*
Y1867322D1*
X2287306Y1967802D2*
X2349539D1*
Y1867322D1*
Y1919938D2*
X2311293D1*
X2101856Y1953432D2*
X2106609Y1962938D1*
X2120979Y1967691D1*
X2130485D1*
X2144855Y1962938D1*
X2154472Y1948568D1*
X2159225Y1924692D1*
Y1900815D1*
X2154472Y1881692D1*
X2144855Y1872075D1*
X2130485Y1867322D1*
X2125732D1*
X2111472Y1872075D1*
X2101856Y1881692D1*
X2097102Y1896062D1*
Y1900815D1*
X2101856Y1915185D1*
X2111472Y1924692D1*
X2125732Y1929445D1*
X2130485D1*
X2144855Y1924692D1*
X2154472Y1915185D1*
X2159225Y1900815D1*
X2056607Y1967691D2*
X2004101D1*
X2032730Y1929445D1*
X2018360D1*
X2008854Y1924692D1*
X2004101Y1919938D1*
X1999237Y1905568D1*
Y1896062D1*
X2004101Y1881692D1*
X2013607Y1872075D1*
X2027977Y1867322D1*
X2042347D1*
X2056607Y1872075D1*
X2061360Y1876939D1*
X2066224Y1886445D1*
X1939619Y1967691D2*
X1953989Y1962938D1*
X1963605Y1948568D1*
X1968359Y1924692D1*
Y1910321D1*
X1963605Y1886445D1*
X1953989Y1872075D1*
X1939619Y1867322D1*
X1930112D1*
X1915742Y1872075D1*
X1906236Y1886445D1*
X1901372Y1910321D1*
Y1924692D1*
X1906236Y1948568D1*
X1915742Y1962938D1*
X1930112Y1967691D1*
X1939619D1*
X1906236Y1948568D2*
X1963605Y1886445D1*
X1870493Y1967802D2*
X1832247Y1867322D1*
X1794000Y1967802D1*
M02*
