M48
INCH
T01C0.038
T02C0.0472
T03C0.0591
T04C0.06
T05C0.0669
T06C0.17
%
T01
X+012190Y+040690
X+008190Y+040690
X+027190Y+040690
X+031190Y+040690
T02
X+007190Y+034940
X+011540Y+034940
X+012590Y+034940
X+016940Y+034940
X+026190Y+034940
X+030540Y+034940
X+031590Y+034940
X+035940Y+034940
T03
X+009940Y+031440
X+012086Y+031440
X+014231Y+031440
X+029940Y+031440
X+032086Y+031440
X+034231Y+031440
T04
X+015940Y+028440
X+017940Y+028440
X+020940Y+028440
X+022940Y+028440
X+025940Y+028440
X+027940Y+028440
X+030940Y+028440
X+037940Y+034940
X+037940Y+037940
X+019190Y+037940
X+019190Y+034940
X+011440Y+028440
X+014440Y+016690
X+018940Y+016690
X+024940Y+016690
X+029315Y+016690
X+035940Y+016690
X+007940Y+016690
T05
X+027190Y+037940
X+034607Y+037940
X+015607Y+037940
X+008190Y+037940
T06
X+021940Y+024190
X+021940Y+012190
X+010940Y+008690
X+032940Y+008690
T00
M30
