G04 DipTrace 3.1.0.1*
G04 Top.gbr*
%MOIN*%
G04 #@! TF.FileFunction,Copper,L1,Top*
G04 #@! TF.Part,Single*
G04 #@! TA.AperFunction,Conductor*
%ADD13C,0.15*%
%ADD14C,0.012992*%
%ADD15C,0.2*%
%ADD17C,0.3*%
G04 #@! TA.AperFunction,CopperBalancing*
%ADD18C,0.025*%
G04 #@! TA.AperFunction,ComponentPad*
%ADD20R,0.070866X0.070866*%
%ADD21C,0.070866*%
%ADD22R,0.110236X0.110236*%
%ADD23C,0.110236*%
%ADD24C,0.1*%
%ADD25R,0.1X0.1*%
%ADD26C,0.4*%
%ADD27C,0.06*%
%ADD28C,0.06*%
%ADD29R,0.094488X0.094488*%
%ADD30C,0.094488*%
%FSLAX26Y26*%
G04*
G70*
G90*
G75*
G01*
G04 Top*
%LPD*%
X1594000Y2844000D2*
D13*
X1794000D1*
X1423134Y3144000D2*
D14*
X1994000D1*
X2094000Y3044000D1*
X3208567D1*
Y3144000D1*
X2094000Y2844000D2*
D15*
X2294000D1*
X1144000D2*
D14*
X1194000D1*
Y3158567D1*
X1208567Y3144000D1*
X1144000Y2844000D2*
Y1969000D1*
X1444000Y1669000D1*
X794000D2*
Y2744000D1*
X1194000Y3144000D1*
X1208567D1*
X1094000Y869000D2*
X644000D1*
Y1669000D1*
X794000D1*
X2594000Y2844000D2*
D13*
X2794000D1*
X1894000Y1669000D2*
D17*
X2194000D1*
Y1219000D1*
X2494000D1*
Y1669000D1*
X509018Y3256631D2*
D18*
X1285504D1*
X3365004D2*
X3878997D1*
X509018Y3231762D2*
X900753D1*
X1087256D2*
X1285504D1*
X3365004D2*
X3397575D1*
X3448686D2*
X3878997D1*
X509018Y3206894D2*
X900753D1*
X1087256D2*
X1285504D1*
X3491030D2*
X3878997D1*
X509018Y3182025D2*
X900753D1*
X1087256D2*
X1285504D1*
X3508039D2*
X3878997D1*
X509018Y3157156D2*
X900753D1*
X1087256D2*
X1285504D1*
X3515430D2*
X3878997D1*
X509018Y3132287D2*
X900753D1*
X1087256D2*
X1285504D1*
X3515610D2*
X3878997D1*
X509018Y3107419D2*
X900753D1*
X1087256D2*
X1285504D1*
X3508685D2*
X3878997D1*
X509018Y3082550D2*
X900753D1*
X1087256D2*
X1285504D1*
X3492394D2*
X3878997D1*
X509018Y3057681D2*
X900753D1*
X1087256D2*
X1285504D1*
X3365004D2*
X3392659D1*
X3453638D2*
X3878997D1*
X509018Y3032812D2*
X1285504D1*
X3365004D2*
X3878997D1*
X509018Y3007944D2*
X1285504D1*
X3365004D2*
X3878997D1*
X509018Y2983075D2*
X1285504D1*
X3365004D2*
X3878997D1*
X509018Y2958206D2*
X1285504D1*
X3365004D2*
X3878997D1*
X509018Y2933337D2*
X1285504D1*
X3365004D2*
X3878997D1*
X509018Y2908469D2*
X1285504D1*
X3365004D2*
X3878997D1*
X509018Y2883600D2*
X1285504D1*
X3365004D2*
X3878997D1*
X509018Y2858731D2*
X1285504D1*
X3365004D2*
X3878997D1*
X509018Y2833862D2*
X1285504D1*
X3365004D2*
X3878997D1*
X509018Y2808993D2*
X1285504D1*
X3365004D2*
X3878997D1*
X509018Y2784125D2*
X1285504D1*
X3365004D2*
X3878997D1*
X509018Y2759256D2*
X1285504D1*
X3365004D2*
X3878997D1*
X509018Y2734387D2*
X1285504D1*
X3365004D2*
X3878997D1*
X509018Y2709518D2*
X1285504D1*
X3365004D2*
X3878997D1*
X509018Y2684650D2*
X1285504D1*
X3365004D2*
X3878997D1*
X509018Y2659781D2*
X1285504D1*
X3365004D2*
X3878997D1*
X509018Y2634912D2*
X1285504D1*
X3365004D2*
X3878997D1*
X509018Y2610043D2*
X1285504D1*
X3365004D2*
X3878997D1*
X509018Y2585175D2*
X1285504D1*
X3365004D2*
X3878997D1*
X509018Y2560306D2*
X1285504D1*
X3365004D2*
X3878997D1*
X509018Y2535437D2*
X1285504D1*
X3365004D2*
X3878997D1*
X509018Y2510568D2*
X1285504D1*
X3365004D2*
X3878997D1*
X509018Y2485699D2*
X1285504D1*
X3365004D2*
X3878997D1*
X509018Y2460831D2*
X1285504D1*
X3365004D2*
X3878997D1*
X509018Y2435962D2*
X1285504D1*
X3365004D2*
X3878997D1*
X509018Y2411093D2*
X1285504D1*
X3365004D2*
X3878997D1*
X509018Y2386224D2*
X1285504D1*
X3365004D2*
X3878997D1*
X509018Y2361356D2*
X1285504D1*
X3365004D2*
X3878997D1*
X509018Y2336487D2*
X1285504D1*
X3365004D2*
X3878997D1*
X509018Y2311618D2*
X1285504D1*
X3365004D2*
X3878997D1*
X509018Y2286749D2*
X1285504D1*
X3365004D2*
X3878997D1*
X509018Y2261881D2*
X1285504D1*
X3365004D2*
X3878997D1*
X509018Y2237012D2*
X1285504D1*
X3365004D2*
X3878997D1*
X509018Y2212143D2*
X1285504D1*
X3365004D2*
X3878997D1*
X509018Y2187274D2*
X1285504D1*
X3365004D2*
X3878997D1*
X509018Y2162406D2*
X1285504D1*
X3365004D2*
X3878997D1*
X509018Y2137537D2*
X1285504D1*
X3365004D2*
X3878997D1*
X509018Y2112668D2*
X1285504D1*
X3365004D2*
X3878997D1*
X509018Y2087799D2*
X1285504D1*
X3365004D2*
X3878997D1*
X509018Y2062930D2*
X1285934D1*
X3364573D2*
X3878997D1*
X509018Y2038062D2*
X1298423D1*
X3352087D2*
X3878997D1*
X509018Y2013193D2*
X3878997D1*
X509018Y1988324D2*
X1602541D1*
X2785475D2*
X3878997D1*
X509018Y1963455D2*
X1597983D1*
X2789996D2*
X3878997D1*
X509018Y1938587D2*
X1597983D1*
X2789996D2*
X3878997D1*
X509018Y1913718D2*
X1597983D1*
X2789996D2*
X3878997D1*
X509018Y1888849D2*
X1597983D1*
X2789996D2*
X3878997D1*
X509018Y1863980D2*
X1597983D1*
X2789996D2*
X3878997D1*
X509018Y1839112D2*
X1597983D1*
X2789996D2*
X3878997D1*
X509018Y1814243D2*
X1597983D1*
X2789996D2*
X3878997D1*
X509018Y1789374D2*
X1597983D1*
X2789996D2*
X3878997D1*
X509018Y1764505D2*
X1597983D1*
X2789996D2*
X3878997D1*
X509018Y1739636D2*
X1597983D1*
X2789996D2*
X2867745D1*
X2995253D2*
X3530239D1*
X3657748D2*
X3878997D1*
X509018Y1714768D2*
X1597983D1*
X2789996D2*
X2847471D1*
X3015529D2*
X3509965D1*
X3678022D2*
X3878997D1*
X509018Y1689899D2*
X1597983D1*
X2789996D2*
X2837853D1*
X3025146D2*
X3500383D1*
X3687639D2*
X3878997D1*
X509018Y1665030D2*
X1597983D1*
X2789996D2*
X2835593D1*
X3027406D2*
X3498087D1*
X3689900D2*
X3878997D1*
X509018Y1640161D2*
X1597983D1*
X2789996D2*
X2840042D1*
X3022957D2*
X3502572D1*
X3685450D2*
X3878997D1*
X509018Y1615293D2*
X1597983D1*
X2789996D2*
X2852458D1*
X3010541D2*
X3514953D1*
X3673034D2*
X3878997D1*
X509018Y1590424D2*
X1597983D1*
X2789996D2*
X2878331D1*
X2984668D2*
X3540825D1*
X3647161D2*
X3878997D1*
X509018Y1565555D2*
X1597983D1*
X2789996D2*
X3878997D1*
X509018Y1540686D2*
X1597983D1*
X2789996D2*
X3878997D1*
X509018Y1515818D2*
X1597983D1*
X2789996D2*
X3878997D1*
X509018Y1490949D2*
X1597983D1*
X2789996D2*
X3878997D1*
X509018Y1466080D2*
X1597983D1*
X2789996D2*
X3878997D1*
X509018Y1441211D2*
X1597983D1*
X2789996D2*
X3878997D1*
X509018Y1416343D2*
X1597983D1*
X2789996D2*
X3878997D1*
X509018Y1391474D2*
X1597983D1*
X2789996D2*
X3878997D1*
X509018Y1366605D2*
X1597983D1*
X2789996D2*
X3878997D1*
X509018Y1341736D2*
X1597983D1*
X2789996D2*
X3878997D1*
X509018Y1316867D2*
X1597983D1*
X2789996D2*
X3878997D1*
X509018Y1291999D2*
X1597983D1*
X2789996D2*
X3878997D1*
X509018Y1267130D2*
X1597983D1*
X2789996D2*
X3878997D1*
X509018Y1242261D2*
X1597983D1*
X2789996D2*
X3878997D1*
X509018Y1217392D2*
X1597983D1*
X2789996D2*
X3878997D1*
X509018Y1192524D2*
X1597983D1*
X2789996D2*
X3878997D1*
X509018Y1167655D2*
X1597983D1*
X2789996D2*
X3878997D1*
X509018Y1142786D2*
X1597983D1*
X2789996D2*
X3878997D1*
X509018Y1117917D2*
X1597983D1*
X2789996D2*
X3878997D1*
X509018Y1093049D2*
X1597983D1*
X2789996D2*
X3196121D1*
X3391882D2*
X3878997D1*
X509018Y1068180D2*
X1597983D1*
X2789996D2*
X3151446D1*
X3436558D2*
X3878997D1*
X509018Y1043311D2*
X1597983D1*
X2789996D2*
X3121482D1*
X3466521D2*
X3878997D1*
X509018Y1018442D2*
X1597983D1*
X2789996D2*
X3099270D1*
X3488734D2*
X3878997D1*
X509018Y993573D2*
X1597983D1*
X2789996D2*
X3082261D1*
X3505706D2*
X3878997D1*
X509018Y968705D2*
X1597983D1*
X2789996D2*
X3069343D1*
X3518660D2*
X3878997D1*
X509018Y943836D2*
X1597983D1*
X2789996D2*
X3059798D1*
X3528206D2*
X3878997D1*
X509018Y918967D2*
X1597983D1*
X2789996D2*
X3053194D1*
X3534808D2*
X3878997D1*
X509018Y894098D2*
X1597983D1*
X2789996D2*
X3049283D1*
X3538719D2*
X3878997D1*
X509018Y869230D2*
X1597983D1*
X2789996D2*
X3047991D1*
X3540012D2*
X3878997D1*
X509018Y844361D2*
X1597983D1*
X2789996D2*
X3049248D1*
X3538756D2*
X3878997D1*
X509018Y819492D2*
X1605555D1*
X2782425D2*
X3053087D1*
X3534916D2*
X3878997D1*
X509018Y794623D2*
X3059654D1*
X3528349D2*
X3878997D1*
X509018Y769755D2*
X3069127D1*
X3518840D2*
X3878997D1*
X509018Y744886D2*
X3082009D1*
X3505993D2*
X3878997D1*
X509018Y720017D2*
X3098911D1*
X3489092D2*
X3878997D1*
X509018Y695148D2*
X3121016D1*
X3466987D2*
X3878997D1*
X509018Y670280D2*
X3150764D1*
X3437203D2*
X3878997D1*
X509018Y645411D2*
X3195081D1*
X3392923D2*
X3878997D1*
X509018Y620542D2*
X3878997D1*
X509018Y595673D2*
X3878997D1*
X509018Y570804D2*
X3878997D1*
X509018Y545936D2*
X3878997D1*
X509018Y521067D2*
X3878997D1*
X509018Y496198D2*
X3878997D1*
X3024711Y1661664D2*
X3023849Y1654374D1*
X3022416Y1647173D1*
X3020424Y1640106D1*
X3017883Y1633219D1*
X3014810Y1626552D1*
X3011222Y1620147D1*
X3007143Y1614042D1*
X3002598Y1608277D1*
X2997614Y1602886D1*
X2992223Y1597902D1*
X2986458Y1593357D1*
X2980353Y1589278D1*
X2973948Y1585690D1*
X2967281Y1582617D1*
X2960394Y1580076D1*
X2953327Y1578084D1*
X2946126Y1576651D1*
X2938836Y1575789D1*
X2931500Y1575500D1*
X2924164Y1575789D1*
X2916874Y1576651D1*
X2909673Y1578084D1*
X2902606Y1580076D1*
X2895719Y1582617D1*
X2889052Y1585690D1*
X2882647Y1589278D1*
X2876542Y1593357D1*
X2870777Y1597902D1*
X2865386Y1602886D1*
X2860402Y1608277D1*
X2855857Y1614042D1*
X2851778Y1620147D1*
X2848190Y1626552D1*
X2845117Y1633219D1*
X2842576Y1640106D1*
X2840584Y1647173D1*
X2839151Y1654374D1*
X2838289Y1661664D1*
X2838000Y1669000D1*
X2838289Y1676336D1*
X2839151Y1683626D1*
X2840584Y1690827D1*
X2842576Y1697894D1*
X2845117Y1704781D1*
X2848190Y1711448D1*
X2851778Y1717853D1*
X2855857Y1723958D1*
X2860402Y1729723D1*
X2865386Y1735114D1*
X2870777Y1740098D1*
X2876542Y1744643D1*
X2882647Y1748722D1*
X2889052Y1752310D1*
X2895719Y1755383D1*
X2902606Y1757924D1*
X2909673Y1759916D1*
X2916874Y1761349D1*
X2924164Y1762211D1*
X2931500Y1762500D1*
X2938836Y1762211D1*
X2946126Y1761349D1*
X2953327Y1759916D1*
X2960394Y1757924D1*
X2967281Y1755383D1*
X2973948Y1752310D1*
X2980353Y1748722D1*
X2986458Y1744643D1*
X2992223Y1740098D1*
X2997614Y1735114D1*
X3002598Y1729723D1*
X3007143Y1723958D1*
X3011222Y1717853D1*
X3014810Y1711448D1*
X3017883Y1704781D1*
X3020424Y1697894D1*
X3022416Y1690827D1*
X3023849Y1683626D1*
X3024711Y1676336D1*
X3025000Y1669000D1*
X3024711Y1661664D1*
X3687211D2*
X3686349Y1654374D1*
X3684916Y1647173D1*
X3682924Y1640106D1*
X3680383Y1633219D1*
X3677310Y1626552D1*
X3673722Y1620147D1*
X3669643Y1614042D1*
X3665098Y1608277D1*
X3660114Y1602886D1*
X3654723Y1597902D1*
X3648958Y1593357D1*
X3642853Y1589278D1*
X3636448Y1585690D1*
X3629781Y1582617D1*
X3622894Y1580076D1*
X3615827Y1578084D1*
X3608626Y1576651D1*
X3601336Y1575789D1*
X3594000Y1575500D1*
X3586664Y1575789D1*
X3579374Y1576651D1*
X3572173Y1578084D1*
X3565106Y1580076D1*
X3558219Y1582617D1*
X3551552Y1585690D1*
X3545147Y1589278D1*
X3539042Y1593357D1*
X3533277Y1597902D1*
X3527886Y1602886D1*
X3522902Y1608277D1*
X3518357Y1614042D1*
X3514278Y1620147D1*
X3510690Y1626552D1*
X3507617Y1633219D1*
X3505076Y1640106D1*
X3503084Y1647173D1*
X3501651Y1654374D1*
X3500789Y1661664D1*
X3500500Y1669000D1*
X3500789Y1676336D1*
X3501651Y1683626D1*
X3503084Y1690827D1*
X3505076Y1697894D1*
X3507617Y1704781D1*
X3510690Y1711448D1*
X3514278Y1717853D1*
X3518357Y1723958D1*
X3522902Y1729723D1*
X3527886Y1735114D1*
X3533277Y1740098D1*
X3539042Y1744643D1*
X3545147Y1748722D1*
X3551552Y1752310D1*
X3558219Y1755383D1*
X3565106Y1757924D1*
X3572173Y1759916D1*
X3579374Y1761349D1*
X3586664Y1762211D1*
X3594000Y1762500D1*
X3601336Y1762211D1*
X3608626Y1761349D1*
X3615827Y1759916D1*
X3622894Y1757924D1*
X3629781Y1755383D1*
X3636448Y1752310D1*
X3642853Y1748722D1*
X3648958Y1744643D1*
X3654723Y1740098D1*
X3660114Y1735114D1*
X3665098Y1729723D1*
X3669643Y1723958D1*
X3673722Y1717853D1*
X3677310Y1711448D1*
X3680383Y1704781D1*
X3682924Y1697894D1*
X3684916Y1690827D1*
X3686349Y1683626D1*
X3687211Y1676336D1*
X3687500Y1669000D1*
X3687211Y1661664D1*
X3537327Y859816D2*
X3535942Y841500D1*
X3533181Y823340D1*
X3529058Y805441D1*
X3523598Y787903D1*
X3516832Y770825D1*
X3508798Y754307D1*
X3499541Y738442D1*
X3489114Y723320D1*
X3477577Y709026D1*
X3464996Y695643D1*
X3451442Y683247D1*
X3436992Y671907D1*
X3421728Y661689D1*
X3405738Y652651D1*
X3389110Y644844D1*
X3371942Y638311D1*
X3354332Y633092D1*
X3336377Y629215D1*
X3318181Y626703D1*
X3299848Y625571D1*
X3281482Y625822D1*
X3263186Y627458D1*
X3245066Y630467D1*
X3227224Y634835D1*
X3209762Y640535D1*
X3192781Y647534D1*
X3176374Y655795D1*
X3160638Y665268D1*
X3145659Y675902D1*
X3131525Y687633D1*
X3118316Y700396D1*
X3106106Y714119D1*
X3094966Y728723D1*
X3084958Y744126D1*
X3076139Y760239D1*
X3068560Y776971D1*
X3062265Y794227D1*
X3057287Y811908D1*
X3053657Y829913D1*
X3051395Y848142D1*
X3050513Y866490D1*
X3051017Y884850D1*
X3052903Y903122D1*
X3056161Y921199D1*
X3060772Y938979D1*
X3066711Y956361D1*
X3073944Y973245D1*
X3082428Y989537D1*
X3092115Y1005143D1*
X3102953Y1019974D1*
X3114877Y1033946D1*
X3127820Y1046979D1*
X3141709Y1058999D1*
X3156465Y1069938D1*
X3172003Y1079735D1*
X3188235Y1088331D1*
X3205070Y1095680D1*
X3222409Y1101739D1*
X3240157Y1106472D1*
X3258213Y1109856D1*
X3276470Y1111869D1*
X3294827Y1112499D1*
X3313180Y1111743D1*
X3331424Y1109608D1*
X3349454Y1106101D1*
X3367169Y1101247D1*
X3384469Y1095070D1*
X3401252Y1087608D1*
X3417427Y1078900D1*
X3432898Y1069000D1*
X3447579Y1057961D1*
X3461386Y1045845D1*
X3474240Y1032724D1*
X3486070Y1018672D1*
X3496804Y1003768D1*
X3506387Y988097D1*
X3514760Y971748D1*
X3521878Y954815D1*
X3527698Y937392D1*
X3532189Y919581D1*
X3535324Y901483D1*
X3537085Y883199D1*
X3537500Y869000D1*
X3537327Y859816D1*
X912442Y3234744D2*
X1084744D1*
Y3053256D1*
X903256D1*
Y3234744D1*
X912442D1*
X3513598Y3136881D2*
X3512761Y3129804D1*
X3511370Y3122816D1*
X3509437Y3115958D1*
X3506970Y3109274D1*
X3503987Y3102803D1*
X3500507Y3096587D1*
X3496547Y3090661D1*
X3492136Y3085067D1*
X3487299Y3079835D1*
X3482067Y3074997D1*
X3476472Y3070587D1*
X3470547Y3066627D1*
X3464331Y3063147D1*
X3457860Y3060164D1*
X3451176Y3057697D1*
X3444318Y3055764D1*
X3437329Y3054373D1*
X3430253Y3053535D1*
X3423134Y3053256D1*
X3416014Y3053535D1*
X3408938Y3054373D1*
X3401950Y3055764D1*
X3395092Y3057697D1*
X3388408Y3060164D1*
X3381937Y3063147D1*
X3375720Y3066627D1*
X3369795Y3070587D1*
X3362504Y3076566D1*
X3362366Y2065587D1*
X3361298Y2058845D1*
X3359189Y2052353D1*
X3356091Y2046272D1*
X3352077Y2040749D1*
X3347251Y2035923D1*
X3341728Y2031909D1*
X3335647Y2028811D1*
X3329155Y2026702D1*
X3322413Y2025634D1*
X3282255Y2025500D1*
X1328087Y2025634D1*
X1321345Y2026702D1*
X1314853Y2028811D1*
X1308772Y2031909D1*
X1303249Y2035923D1*
X1298423Y2040749D1*
X1294409Y2046272D1*
X1291311Y2052353D1*
X1289202Y2058845D1*
X1288134Y2065587D1*
X1288000Y2105745D1*
Y3281528D1*
X506497Y3281500D1*
X506500Y481505D1*
X3881503Y481500D1*
X3881500Y3281495D1*
X3362520Y3281500D1*
X3362500Y3211503D1*
X3369795Y3217413D1*
X3375720Y3221373D1*
X3381937Y3224853D1*
X3388408Y3227836D1*
X3395092Y3230303D1*
X3401950Y3232236D1*
X3408938Y3233627D1*
X3416014Y3234465D1*
X3423134Y3234744D1*
X3430253Y3234465D1*
X3437329Y3233627D1*
X3444318Y3232236D1*
X3451176Y3230303D1*
X3457860Y3227836D1*
X3464331Y3224853D1*
X3470547Y3221373D1*
X3476472Y3217413D1*
X3482067Y3213003D1*
X3487299Y3208165D1*
X3492136Y3202933D1*
X3496547Y3197339D1*
X3500507Y3191413D1*
X3503987Y3185197D1*
X3506970Y3178726D1*
X3509437Y3172042D1*
X3511370Y3165184D1*
X3512761Y3158196D1*
X3513598Y3151119D1*
X3513878Y3144000D1*
X3513598Y3136881D1*
X1600500Y844035D2*
X1600634Y1972413D1*
X1601702Y1979155D1*
X1603811Y1985647D1*
X1606909Y1991728D1*
X1610923Y1997251D1*
X1615749Y2002077D1*
X1621272Y2006091D1*
X1627353Y2009189D1*
X1633845Y2011298D1*
X1640587Y2012366D1*
X1680745Y2012500D1*
X2747413Y2012366D1*
X2754155Y2011298D1*
X2760647Y2009189D1*
X2766728Y2006091D1*
X2772251Y2002077D1*
X2777077Y1997251D1*
X2781091Y1991728D1*
X2784189Y1985647D1*
X2786298Y1979155D1*
X2787366Y1972413D1*
X2787500Y1932255D1*
X2787366Y840587D1*
X2786298Y833845D1*
X2784189Y827353D1*
X2781091Y821272D1*
X2777077Y815749D1*
X2772251Y810923D1*
X2766728Y806909D1*
X2760647Y803811D1*
X2754155Y801702D1*
X2747413Y800634D1*
X2707255Y800500D1*
X1640587Y800634D1*
X1633845Y801702D1*
X1627353Y803811D1*
X1621272Y806909D1*
X1615749Y810923D1*
X1610923Y815749D1*
X1606909Y821272D1*
X1603811Y827353D1*
X1601702Y833845D1*
X1600634Y840587D1*
X1600500Y844013D1*
X1346518Y3256631D2*
X3303988D1*
X1346518Y3231762D2*
X3303988D1*
X1346518Y3206894D2*
X2917766D1*
X3070251D2*
X3303988D1*
X1346518Y3182025D2*
X2917766D1*
X3070251D2*
X3303988D1*
X1346518Y3157156D2*
X2917766D1*
X3070251D2*
X3303988D1*
X1346518Y3132287D2*
X2917766D1*
X3070251D2*
X3303988D1*
X1346518Y3107419D2*
X2917766D1*
X3070251D2*
X3303988D1*
X1346518Y3082550D2*
X2917766D1*
X3070251D2*
X3303988D1*
X1346518Y3057681D2*
X3303988D1*
X1346518Y3032812D2*
X3303988D1*
X1346518Y3007944D2*
X3303988D1*
X1346518Y2983075D2*
X3303988D1*
X1346518Y2958206D2*
X3303988D1*
X1346518Y2933337D2*
X1543331D1*
X1844663D2*
X2543315D1*
X2844682D2*
X3303988D1*
X1346518Y2908469D2*
X1513115D1*
X1874912D2*
X2513101D1*
X2874898D2*
X3050323D1*
X3137677D2*
X3303988D1*
X1346518Y2883600D2*
X1498045D1*
X1889948D2*
X2498029D1*
X2889969D2*
X3026029D1*
X3161971D2*
X3303988D1*
X1346518Y2858731D2*
X1491083D1*
X1896909D2*
X2491068D1*
X2896930D2*
X3016449D1*
X3171551D2*
X3303988D1*
X1346518Y2833862D2*
X1490509D1*
X1897484D2*
X2490493D1*
X2897504D2*
X3015659D1*
X3172341D2*
X3303988D1*
X1346518Y2808993D2*
X1496215D1*
X1891778D2*
X2496235D1*
X2891762D2*
X3023482D1*
X3164518D2*
X3303988D1*
X1346518Y2784125D2*
X1509528D1*
X1878465D2*
X2509549D1*
X2878450D2*
X3043900D1*
X3144100D2*
X3303988D1*
X1346518Y2759256D2*
X1535651D1*
X1852378D2*
X2535636D1*
X2852362D2*
X3303988D1*
X1346518Y2734387D2*
X3303988D1*
X1346518Y2709518D2*
X3303988D1*
X1346518Y2684650D2*
X3303988D1*
X1346518Y2659781D2*
X3303988D1*
X1346518Y2634912D2*
X3303988D1*
X1346518Y2610043D2*
X3303988D1*
X1346518Y2585175D2*
X3303988D1*
X1346518Y2560306D2*
X3303988D1*
X1346518Y2535437D2*
X3303988D1*
X1346518Y2510568D2*
X3303988D1*
X1346518Y2485699D2*
X3303988D1*
X1346518Y2460831D2*
X3303988D1*
X1346518Y2435962D2*
X3303988D1*
X1346518Y2411093D2*
X3303988D1*
X1346518Y2386224D2*
X3303988D1*
X1346518Y2361356D2*
X3303988D1*
X1346518Y2336487D2*
X3303988D1*
X1346518Y2311618D2*
X3303988D1*
X1346518Y2286749D2*
X3303988D1*
X1346518Y2261881D2*
X3303988D1*
X1346518Y2237012D2*
X3303988D1*
X1346518Y2212143D2*
X3303988D1*
X1346518Y2187274D2*
X3303988D1*
X1346518Y2162406D2*
X3303988D1*
X1346518Y2137537D2*
X3303988D1*
X1346518Y2112668D2*
X3303988D1*
X1346518Y2087799D2*
X3303988D1*
X1860714Y2920500D2*
X1870500D1*
Y2910703D1*
X1876115Y2903660D1*
X1880543Y2897034D1*
X1884437Y2890080D1*
X1887774Y2882843D1*
X1890533Y2875365D1*
X1892696Y2867694D1*
X1894251Y2859878D1*
X1895188Y2851963D1*
X1895500Y2844000D1*
X1895188Y2836037D1*
X1894251Y2828122D1*
X1892696Y2820306D1*
X1890533Y2812635D1*
X1887774Y2805157D1*
X1884437Y2797920D1*
X1880543Y2790966D1*
X1876115Y2784340D1*
X1870484Y2777327D1*
X1870500Y2767500D1*
X1860703D1*
X1853660Y2761885D1*
X1847034Y2757457D1*
X1840080Y2753563D1*
X1832843Y2750226D1*
X1825365Y2747467D1*
X1817694Y2745304D1*
X1809878Y2743749D1*
X1801963Y2742812D1*
X1784814Y2742500D1*
X1594000D1*
X1586037Y2742812D1*
X1578122Y2743749D1*
X1570306Y2745304D1*
X1562635Y2747467D1*
X1555157Y2750226D1*
X1547920Y2753563D1*
X1540966Y2757457D1*
X1534340Y2761885D1*
X1528081Y2766819D1*
X1522228Y2772228D1*
X1516819Y2778081D1*
X1511885Y2784340D1*
X1507457Y2790966D1*
X1503563Y2797920D1*
X1500226Y2805157D1*
X1497467Y2812635D1*
X1495304Y2820306D1*
X1493749Y2828122D1*
X1492812Y2836037D1*
X1492500Y2844000D1*
X1492812Y2851963D1*
X1493749Y2859878D1*
X1495304Y2867694D1*
X1497467Y2875365D1*
X1500226Y2882843D1*
X1503563Y2890080D1*
X1507457Y2897034D1*
X1511885Y2903660D1*
X1516819Y2909919D1*
X1522228Y2915772D1*
X1528081Y2921181D1*
X1534340Y2926115D1*
X1540966Y2930543D1*
X1547920Y2934437D1*
X1555157Y2937774D1*
X1562635Y2940533D1*
X1570306Y2942696D1*
X1578122Y2944251D1*
X1586037Y2945188D1*
X1603186Y2945500D1*
X1794000D1*
X1801963Y2945188D1*
X1809878Y2944251D1*
X1817694Y2942696D1*
X1825365Y2940533D1*
X1832843Y2937774D1*
X1840080Y2934437D1*
X1847034Y2930543D1*
X1853660Y2926115D1*
X1860673Y2920484D1*
X3170264Y2837997D2*
X3169558Y2832033D1*
X3168386Y2826142D1*
X3166756Y2820360D1*
X3164677Y2814724D1*
X3162161Y2809270D1*
X3159227Y2804029D1*
X3155890Y2799034D1*
X3152171Y2794318D1*
X3148093Y2789907D1*
X3143682Y2785829D1*
X3138966Y2782110D1*
X3133971Y2778773D1*
X3128730Y2775839D1*
X3123276Y2773323D1*
X3117640Y2771244D1*
X3111858Y2769614D1*
X3105967Y2768442D1*
X3100003Y2767736D1*
X3094000Y2767500D1*
X3087997Y2767736D1*
X3082033Y2768442D1*
X3076142Y2769614D1*
X3070360Y2771244D1*
X3064724Y2773323D1*
X3059270Y2775839D1*
X3054029Y2778773D1*
X3049034Y2782110D1*
X3044318Y2785829D1*
X3039907Y2789907D1*
X3035829Y2794318D1*
X3032110Y2799034D1*
X3028773Y2804029D1*
X3025839Y2809270D1*
X3023323Y2814724D1*
X3021244Y2820360D1*
X3019614Y2826142D1*
X3018442Y2832033D1*
X3017736Y2837997D1*
X3017500Y2844000D1*
X3017736Y2850003D1*
X3018442Y2855967D1*
X3019614Y2861858D1*
X3021244Y2867640D1*
X3023323Y2873276D1*
X3025839Y2878730D1*
X3028773Y2883971D1*
X3032110Y2888966D1*
X3035829Y2893682D1*
X3039907Y2898093D1*
X3044318Y2902171D1*
X3049034Y2905890D1*
X3054029Y2909227D1*
X3059270Y2912161D1*
X3064724Y2914677D1*
X3070360Y2916756D1*
X3076142Y2918386D1*
X3082033Y2919558D1*
X3087997Y2920264D1*
X3094000Y2920500D1*
X3100003Y2920264D1*
X3105967Y2919558D1*
X3111858Y2918386D1*
X3117640Y2916756D1*
X3123276Y2914677D1*
X3128730Y2912161D1*
X3133971Y2909227D1*
X3138966Y2905890D1*
X3143682Y2902171D1*
X3148093Y2898093D1*
X3152171Y2893682D1*
X3155890Y2888966D1*
X3159227Y2883971D1*
X3162161Y2878730D1*
X3164677Y2873276D1*
X3166756Y2867640D1*
X3168386Y2861858D1*
X3169558Y2855967D1*
X3170264Y2850003D1*
X3170500Y2844000D1*
X3170264Y2837997D1*
X2860714Y2920500D2*
X2870500D1*
Y2910703D1*
X2876115Y2903660D1*
X2880543Y2897034D1*
X2884437Y2890080D1*
X2887774Y2882843D1*
X2890533Y2875365D1*
X2892696Y2867694D1*
X2894251Y2859878D1*
X2895188Y2851963D1*
X2895500Y2844000D1*
X2895188Y2836037D1*
X2894251Y2828122D1*
X2892696Y2820306D1*
X2890533Y2812635D1*
X2887774Y2805157D1*
X2884437Y2797920D1*
X2880543Y2790966D1*
X2876115Y2784340D1*
X2870484Y2777327D1*
X2870500Y2767500D1*
X2860703D1*
X2853660Y2761885D1*
X2847034Y2757457D1*
X2840080Y2753563D1*
X2832843Y2750226D1*
X2825365Y2747467D1*
X2817694Y2745304D1*
X2809878Y2743749D1*
X2801963Y2742812D1*
X2784814Y2742500D1*
X2594000D1*
X2586037Y2742812D1*
X2578122Y2743749D1*
X2570306Y2745304D1*
X2562635Y2747467D1*
X2555157Y2750226D1*
X2547920Y2753563D1*
X2540966Y2757457D1*
X2534340Y2761885D1*
X2528081Y2766819D1*
X2522228Y2772228D1*
X2516819Y2778081D1*
X2511885Y2784340D1*
X2507457Y2790966D1*
X2503563Y2797920D1*
X2500226Y2805157D1*
X2497467Y2812635D1*
X2495304Y2820306D1*
X2493749Y2828122D1*
X2492812Y2836037D1*
X2492500Y2844000D1*
X2492812Y2851963D1*
X2493749Y2859878D1*
X2495304Y2867694D1*
X2497467Y2875365D1*
X2500226Y2882843D1*
X2503563Y2890080D1*
X2507457Y2897034D1*
X2511885Y2903660D1*
X2516819Y2909919D1*
X2522228Y2915772D1*
X2528081Y2921181D1*
X2534340Y2926115D1*
X2540966Y2930543D1*
X2547920Y2934437D1*
X2555157Y2937774D1*
X2562635Y2940533D1*
X2570306Y2942696D1*
X2578122Y2944251D1*
X2586037Y2945188D1*
X2603186Y2945500D1*
X2794000D1*
X2801963Y2945188D1*
X2809878Y2944251D1*
X2817694Y2942696D1*
X2825365Y2940533D1*
X2832843Y2937774D1*
X2840080Y2934437D1*
X2847034Y2930543D1*
X2853660Y2926115D1*
X2860673Y2920484D1*
X2929442Y3217744D2*
X3067744D1*
Y3070256D1*
X2920256D1*
Y3217744D1*
X2929442D1*
X1344000Y3281476D2*
Y2081488D1*
X3306466Y2081500D1*
X3306500Y3281469D1*
X1343970Y3281500D1*
X1659018Y1931631D2*
X2729000D1*
X1659018Y1906762D2*
X2729000D1*
X1659018Y1881894D2*
X2729000D1*
X1659018Y1857025D2*
X2729000D1*
X1659018Y1832156D2*
X2729000D1*
X1659018Y1807287D2*
X2729000D1*
X1659018Y1782419D2*
X2729000D1*
X1659018Y1757550D2*
X2729000D1*
X1659018Y1732681D2*
X2729000D1*
X1659018Y1707812D2*
X2729000D1*
X1659018Y1682944D2*
X2729000D1*
X1659018Y1658075D2*
X2729000D1*
X1659018Y1633206D2*
X2729000D1*
X1659018Y1608337D2*
X2729000D1*
X1659018Y1583469D2*
X2729000D1*
X1659018Y1558600D2*
X2729000D1*
X1659018Y1533731D2*
X2729000D1*
X1659018Y1508862D2*
X2729000D1*
X1659018Y1483993D2*
X2729000D1*
X1659018Y1459125D2*
X2729000D1*
X1659018Y1434256D2*
X2729000D1*
X1659018Y1409387D2*
X2729000D1*
X1659018Y1384518D2*
X2729000D1*
X1659018Y1359650D2*
X2729000D1*
X1659018Y1334781D2*
X2729000D1*
X1659018Y1309912D2*
X2729000D1*
X1659018Y1285043D2*
X2729000D1*
X1659018Y1260175D2*
X2729000D1*
X1659018Y1235306D2*
X2729000D1*
X1659018Y1210437D2*
X2729000D1*
X1659018Y1185568D2*
X2729000D1*
X1659018Y1160699D2*
X2729000D1*
X1659018Y1135831D2*
X2729000D1*
X1659018Y1110962D2*
X2729000D1*
X1659018Y1086093D2*
X2729000D1*
X1659018Y1061224D2*
X2729000D1*
X1659018Y1036356D2*
X2729000D1*
X1659018Y1011487D2*
X2729000D1*
X1659018Y986618D2*
X2729000D1*
X1659018Y961749D2*
X2729000D1*
X1659018Y936881D2*
X2729000D1*
X1659018Y912012D2*
X2729000D1*
X1659018Y887143D2*
X2729000D1*
X1659018Y862274D2*
X2729000D1*
X1656500Y1956476D2*
Y856483D1*
X2731470Y856500D1*
X2731500Y1956517D1*
X1656530Y1956500D1*
D20*
X719000Y3494000D3*
D21*
X1154039D3*
D20*
X1694000D3*
D21*
X1258961D3*
D20*
X2619000D3*
D21*
X3054039D3*
D20*
X3594000D3*
D21*
X3158961D3*
D22*
X2719000Y3794000D3*
D23*
X3460732D3*
D22*
X819000D3*
D23*
X1560732D3*
D24*
X1594000Y2844000D3*
D25*
X1144000D3*
D24*
X2094000D3*
D25*
X1794000D3*
D24*
X2594000D3*
D25*
X2294000D3*
D24*
X3094000D3*
D25*
X2794000D3*
D24*
X1444000Y1669000D3*
X2931500D3*
X1919000Y3794000D3*
X3794000Y3494000D3*
D26*
X2194000Y2419000D3*
Y1219000D3*
D24*
X1894000Y1669000D3*
X794000D3*
X3594000D3*
X2494000D3*
D26*
X1094000Y869000D3*
X3294000D3*
D24*
X1919000Y3494000D3*
X3794000Y3794000D3*
D27*
X1219000Y4069000D3*
D28*
X819000D3*
D27*
X3119000D3*
D28*
X2719000D3*
D29*
X994000Y3144000D3*
D30*
X1208567D3*
X1423134D3*
D29*
X2994000D3*
D30*
X3208567D3*
X3423134D3*
M02*
