G04 DipTrace 3.1.0.1*
G04 TopSilk.gbr*
%MOIN*%
G04 #@! TF.FileFunction,Legend,Top*
G04 #@! TF.Part,Single*
%ADD10C,0.009843*%
%ADD19C,0.001312*%
%ADD60C,0.00772*%
%ADD61C,0.015439*%
%ADD62C,0.009264*%
%FSLAX26Y26*%
G04*
G70*
G90*
G75*
G01*
G04 TopSilk*
%LPD*%
X841915Y3438882D2*
D10*
Y3549118D1*
X843939D2*
X1029100D1*
X871764Y3438882D2*
Y3549118D1*
X1029100Y3438882D2*
Y3549118D1*
X843939Y3438882D2*
X1029100D1*
X1571085Y3549118D2*
Y3438882D1*
X1569061D2*
X1383900D1*
X1541236Y3549118D2*
Y3438882D1*
X1383900Y3549118D2*
Y3438882D1*
X1569061Y3549118D2*
X1383900D1*
X2741915Y3438882D2*
Y3549118D1*
X2743939D2*
X2929100D1*
X2771764Y3438882D2*
Y3549118D1*
X2929100Y3438882D2*
Y3549118D1*
X2743939Y3438882D2*
X2929100D1*
X3471085Y3549118D2*
Y3438882D1*
X3469061D2*
X3283900D1*
X3441236Y3549118D2*
Y3438882D1*
X3283900Y3549118D2*
Y3438882D1*
X3469061Y3549118D2*
X3283900D1*
X2900814Y3683764D2*
X3278918D1*
X2900814Y3904236D2*
X3278918D1*
X2900814Y3683764D2*
Y3904236D1*
X3251059Y3683764D2*
X3282326D1*
Y3904236D1*
X3251059D1*
X2940005D2*
Y3683764D1*
X1000814D2*
X1378918D1*
X1000814Y3904236D2*
X1378918D1*
X1000814Y3683764D2*
Y3904236D1*
X1351059Y3683764D2*
X1382326D1*
Y3904236D1*
X1351059D1*
X1040005D2*
Y3683764D1*
X919180Y4119000D2*
X1118820D1*
Y4019000D2*
Y4119000D1*
X919180Y4019000D2*
X1118820D1*
X919180D2*
Y4119000D1*
X2819180D2*
X3018820D1*
Y4019000D2*
Y4119000D1*
X2819180Y4019000D2*
X3018820D1*
X2819180D2*
Y4119000D1*
X901283Y3254236D2*
X1515457D1*
Y3057386D1*
X901283D1*
Y3254236D1*
Y3206992D2*
X1515457D1*
X2901283Y3254236D2*
X3515457D1*
Y3057386D1*
X2901283D1*
Y3254236D1*
Y3206992D2*
X3515457D1*
X694000Y1969000D2*
D19*
X1994000D1*
Y1369000D1*
X694000D1*
Y1969000D1*
X2394000D2*
X3694000D1*
Y1369000D1*
X2394000D1*
Y1969000D1*
X1019000Y2944000D2*
X1694000D1*
Y2744000D1*
X1019000D1*
Y2944000D1*
X1694000D2*
X2194000D1*
Y2744000D1*
X1694000D1*
Y2944000D1*
X2194000D2*
X2694000D1*
Y2744000D1*
X2194000D1*
Y2944000D1*
X2694000D2*
X3194000D1*
Y2744000D1*
X2694000D1*
Y2944000D1*
X780133Y3612724D2*
D60*
X784941Y3615156D1*
X792126Y3622286D1*
Y3572101D1*
X841059Y3622341D2*
Y3572101D1*
X807565Y3622341D1*
Y3572101D1*
X880430D2*
Y3622286D1*
X856498Y3588848D1*
X892368D1*
X917369Y3572101D2*
X941300Y3622286D1*
X907807D1*
X985425D2*
X961548D1*
X959172Y3600786D1*
X961548Y3603163D1*
X968733Y3605595D1*
X975863D1*
X983048Y3603163D1*
X987856Y3598409D1*
X990233Y3591224D1*
Y3586471D1*
X987856Y3579286D1*
X983048Y3574478D1*
X975863Y3572101D1*
X968733D1*
X961548Y3574478D1*
X959172Y3576910D1*
X956740Y3581663D1*
X1008104Y3610348D2*
Y3612724D1*
X1010481Y3617533D1*
X1012857Y3619909D1*
X1017666Y3622286D1*
X1027227D1*
X1031981Y3619909D1*
X1034357Y3617533D1*
X1036789Y3612724D1*
Y3607971D1*
X1034357Y3603163D1*
X1029604Y3596033D1*
X1005672Y3572101D1*
X1039166D1*
X1092907D2*
X1073728Y3622341D1*
X1054605Y3572101D1*
X1061790Y3588848D2*
X1085722D1*
X1320093Y3612724D2*
X1324902Y3615156D1*
X1332087Y3622286D1*
Y3572101D1*
X1381019Y3622341D2*
Y3572101D1*
X1347526Y3622341D1*
Y3572101D1*
X1420390D2*
Y3622286D1*
X1396459Y3588848D1*
X1432329D1*
X1457329Y3572101D2*
X1481261Y3622286D1*
X1447768D1*
X1525385D2*
X1501509D1*
X1499132Y3600786D1*
X1501509Y3603163D1*
X1508694Y3605595D1*
X1515824D1*
X1523009Y3603163D1*
X1527817Y3598409D1*
X1530194Y3591224D1*
Y3586471D1*
X1527817Y3579286D1*
X1523009Y3574478D1*
X1515824Y3572101D1*
X1508694D1*
X1501509Y3574478D1*
X1499132Y3576910D1*
X1496700Y3581663D1*
X1548065Y3610348D2*
Y3612724D1*
X1550441Y3617533D1*
X1552818Y3619909D1*
X1557626Y3622286D1*
X1567188D1*
X1571941Y3619909D1*
X1574318Y3617533D1*
X1576750Y3612724D1*
Y3607971D1*
X1574318Y3603163D1*
X1569565Y3596033D1*
X1545633Y3572101D1*
X1579126D1*
X1632867D2*
X1613689Y3622341D1*
X1594566Y3572101D1*
X1601751Y3588848D2*
X1625682D1*
X2680133Y3612724D2*
X2684941Y3615156D1*
X2692126Y3622286D1*
Y3572101D1*
X2741059Y3622341D2*
Y3572101D1*
X2707565Y3622341D1*
Y3572101D1*
X2780430D2*
Y3622286D1*
X2756498Y3588848D1*
X2792368D1*
X2817369Y3572101D2*
X2841300Y3622286D1*
X2807807D1*
X2885425D2*
X2861548D1*
X2859172Y3600786D1*
X2861548Y3603163D1*
X2868733Y3605595D1*
X2875863D1*
X2883048Y3603163D1*
X2887856Y3598409D1*
X2890233Y3591224D1*
Y3586471D1*
X2887856Y3579286D1*
X2883048Y3574478D1*
X2875863Y3572101D1*
X2868733D1*
X2861548Y3574478D1*
X2859172Y3576910D1*
X2856740Y3581663D1*
X2908104Y3610348D2*
Y3612724D1*
X2910481Y3617533D1*
X2912857Y3619909D1*
X2917666Y3622286D1*
X2927227D1*
X2931981Y3619909D1*
X2934357Y3617533D1*
X2936789Y3612724D1*
Y3607971D1*
X2934357Y3603163D1*
X2929604Y3596033D1*
X2905672Y3572101D1*
X2939166D1*
X2992907D2*
X2973728Y3622341D1*
X2954605Y3572101D1*
X2961790Y3588848D2*
X2985722D1*
X3220093Y3612724D2*
X3224902Y3615156D1*
X3232087Y3622286D1*
Y3572101D1*
X3281019Y3622341D2*
Y3572101D1*
X3247526Y3622341D1*
Y3572101D1*
X3320390D2*
Y3622286D1*
X3296459Y3588848D1*
X3332329D1*
X3357329Y3572101D2*
X3381261Y3622286D1*
X3347768D1*
X3425385D2*
X3401509D1*
X3399132Y3600786D1*
X3401509Y3603163D1*
X3408694Y3605595D1*
X3415824D1*
X3423009Y3603163D1*
X3427817Y3598409D1*
X3430194Y3591224D1*
Y3586471D1*
X3427817Y3579286D1*
X3423009Y3574478D1*
X3415824Y3572101D1*
X3408694D1*
X3401509Y3574478D1*
X3399132Y3576910D1*
X3396700Y3581663D1*
X3448065Y3610348D2*
Y3612724D1*
X3450441Y3617533D1*
X3452818Y3619909D1*
X3457626Y3622286D1*
X3467188D1*
X3471941Y3619909D1*
X3474318Y3617533D1*
X3476750Y3612724D1*
Y3607971D1*
X3474318Y3603163D1*
X3469565Y3596033D1*
X3445633Y3572101D1*
X3479126D1*
X3532867D2*
X3513689Y3622341D1*
X3494566Y3572101D1*
X3501751Y3588848D2*
X3525682D1*
X2973504Y3967842D2*
X2978312Y3970274D1*
X2985497Y3977404D1*
Y3927219D1*
X3034430Y3977459D2*
Y3927219D1*
X3000937Y3977459D1*
Y3927219D1*
X3078554Y3977404D2*
X3054678D1*
X3052301Y3955904D1*
X3054678Y3958281D1*
X3061863Y3960713D1*
X3068992D1*
X3076177Y3958281D1*
X3080986Y3953528D1*
X3083362Y3946343D1*
Y3941589D1*
X3080986Y3934404D1*
X3076177Y3929596D1*
X3068992Y3927219D1*
X3061863D1*
X3054678Y3929596D1*
X3052301Y3932028D1*
X3049869Y3936781D1*
X3110740Y3977404D2*
X3103610Y3975027D1*
X3101178Y3970274D1*
Y3965466D1*
X3103610Y3960713D1*
X3108363Y3958281D1*
X3117925Y3955904D1*
X3125110Y3953528D1*
X3129863Y3948719D1*
X3132240Y3943966D1*
Y3936781D1*
X3129863Y3932028D1*
X3127487Y3929596D1*
X3120302Y3927219D1*
X3110740D1*
X3103610Y3929596D1*
X3101178Y3932028D1*
X3098802Y3936781D1*
Y3943966D1*
X3101178Y3948719D1*
X3105987Y3953528D1*
X3113117Y3955904D1*
X3122678Y3958281D1*
X3127487Y3960713D1*
X3129863Y3965466D1*
Y3970274D1*
X3127487Y3975027D1*
X3120302Y3977404D1*
X3110740D1*
X3147679Y3967842D2*
X3152487Y3970274D1*
X3159672Y3977404D1*
Y3927219D1*
X3206228Y3960713D2*
X3203797Y3953528D1*
X3199043Y3948719D1*
X3191858Y3946343D1*
X3189482D1*
X3182297Y3948719D1*
X3177544Y3953528D1*
X3175112Y3960713D1*
Y3963089D1*
X3177544Y3970274D1*
X3182297Y3975027D1*
X3189482Y3977404D1*
X3191858D1*
X3199043Y3975027D1*
X3203797Y3970274D1*
X3206228Y3960713D1*
Y3948719D1*
X3203797Y3936781D1*
X3199043Y3929596D1*
X3191858Y3927219D1*
X3187105D1*
X3179920Y3929596D1*
X3177544Y3934404D1*
X1073504Y3967842D2*
X1078312Y3970274D1*
X1085497Y3977404D1*
Y3927219D1*
X1134430Y3977459D2*
Y3927219D1*
X1100937Y3977459D1*
Y3927219D1*
X1178554Y3977404D2*
X1154678D1*
X1152301Y3955904D1*
X1154678Y3958281D1*
X1161863Y3960713D1*
X1168992D1*
X1176177Y3958281D1*
X1180986Y3953528D1*
X1183362Y3946343D1*
Y3941589D1*
X1180986Y3934404D1*
X1176177Y3929596D1*
X1168992Y3927219D1*
X1161863D1*
X1154678Y3929596D1*
X1152301Y3932028D1*
X1149869Y3936781D1*
X1210740Y3977404D2*
X1203610Y3975027D1*
X1201178Y3970274D1*
Y3965466D1*
X1203610Y3960713D1*
X1208363Y3958281D1*
X1217925Y3955904D1*
X1225110Y3953528D1*
X1229863Y3948719D1*
X1232240Y3943966D1*
Y3936781D1*
X1229863Y3932028D1*
X1227487Y3929596D1*
X1220302Y3927219D1*
X1210740D1*
X1203610Y3929596D1*
X1201178Y3932028D1*
X1198802Y3936781D1*
Y3943966D1*
X1201178Y3948719D1*
X1205987Y3953528D1*
X1213117Y3955904D1*
X1222678Y3958281D1*
X1227487Y3960713D1*
X1229863Y3965466D1*
Y3970274D1*
X1227487Y3975027D1*
X1220302Y3977404D1*
X1210740D1*
X1247679Y3967842D2*
X1252487Y3970274D1*
X1259672Y3977404D1*
Y3927219D1*
X1306228Y3960713D2*
X1303797Y3953528D1*
X1299043Y3948719D1*
X1291858Y3946343D1*
X1289482D1*
X1282297Y3948719D1*
X1277544Y3953528D1*
X1275112Y3960713D1*
Y3963089D1*
X1277544Y3970274D1*
X1282297Y3975027D1*
X1289482Y3977404D1*
X1291858D1*
X1299043Y3975027D1*
X1303797Y3970274D1*
X1306228Y3960713D1*
Y3948719D1*
X1303797Y3936781D1*
X1299043Y3929596D1*
X1291858Y3927219D1*
X1287105D1*
X1279920Y3929596D1*
X1277544Y3934404D1*
X964071Y4182606D2*
X968879Y4185038D1*
X976064Y4192168D1*
Y4141983D1*
X1005873Y4192168D2*
X998688Y4189791D1*
X993880Y4182606D1*
X991503Y4170668D1*
Y4163483D1*
X993880Y4151545D1*
X998688Y4144360D1*
X1005873Y4141983D1*
X1010627D1*
X1017812Y4144360D1*
X1022565Y4151545D1*
X1024997Y4163483D1*
Y4170668D1*
X1022565Y4182606D1*
X1017812Y4189791D1*
X1010627Y4192168D1*
X1005873D1*
X1022565Y4182606D2*
X993880Y4151545D1*
X1040436Y4168291D2*
X1061936D1*
X1069121Y4170723D1*
X1071553Y4173100D1*
X1073929Y4177853D1*
Y4182661D1*
X1071553Y4187415D1*
X1069121Y4189846D1*
X1061936Y4192223D1*
X1040436D1*
Y4141983D1*
X1057183Y4168291D2*
X1073929Y4141983D1*
X2864071Y4182606D2*
X2868879Y4185038D1*
X2876064Y4192168D1*
Y4141983D1*
X2905873Y4192168D2*
X2898688Y4189791D1*
X2893880Y4182606D1*
X2891503Y4170668D1*
Y4163483D1*
X2893880Y4151545D1*
X2898688Y4144360D1*
X2905873Y4141983D1*
X2910627D1*
X2917812Y4144360D1*
X2922565Y4151545D1*
X2924997Y4163483D1*
Y4170668D1*
X2922565Y4182606D1*
X2917812Y4189791D1*
X2910627Y4192168D1*
X2905873D1*
X2922565Y4182606D2*
X2893880Y4151545D1*
X2940436Y4168291D2*
X2961936D1*
X2969121Y4170723D1*
X2971553Y4173100D1*
X2973929Y4177853D1*
Y4182661D1*
X2971553Y4187415D1*
X2969121Y4189846D1*
X2961936Y4192223D1*
X2940436D1*
Y4141983D1*
X2957183Y4168291D2*
X2973929Y4141983D1*
X1133783Y3327459D2*
Y3277219D1*
X1185092Y3315521D2*
X1182715Y3320274D1*
X1177907Y3325083D1*
X1173154Y3327459D1*
X1163592D1*
X1158784Y3325083D1*
X1154031Y3320274D1*
X1151599Y3315521D1*
X1149222Y3308336D1*
Y3296343D1*
X1151599Y3289213D1*
X1154031Y3284404D1*
X1158784Y3279651D1*
X1163592Y3277219D1*
X1173154D1*
X1177907Y3279651D1*
X1182715Y3284404D1*
X1185092Y3289213D1*
Y3296343D1*
X1173154D1*
X1200531Y3327459D2*
Y3277219D1*
X1222086D1*
X1229271Y3279651D1*
X1231648Y3282028D1*
X1234025Y3286781D1*
Y3293966D1*
X1231648Y3298774D1*
X1229271Y3301151D1*
X1222086Y3303528D1*
X1229271Y3305959D1*
X1231648Y3308336D1*
X1234025Y3313089D1*
Y3317898D1*
X1231648Y3322651D1*
X1229271Y3325083D1*
X1222086Y3327459D1*
X1200531D1*
Y3303528D2*
X1222086D1*
X1266211Y3327459D2*
Y3277219D1*
X1249464Y3327459D2*
X1282957D1*
X3133783D2*
Y3277219D1*
X3185092Y3315521D2*
X3182715Y3320274D1*
X3177907Y3325083D1*
X3173154Y3327459D1*
X3163592D1*
X3158784Y3325083D1*
X3154031Y3320274D1*
X3151599Y3315521D1*
X3149222Y3308336D1*
Y3296343D1*
X3151599Y3289213D1*
X3154031Y3284404D1*
X3158784Y3279651D1*
X3163592Y3277219D1*
X3173154D1*
X3177907Y3279651D1*
X3182715Y3284404D1*
X3185092Y3289213D1*
Y3296343D1*
X3173154D1*
X3200531Y3327459D2*
Y3277219D1*
X3222086D1*
X3229271Y3279651D1*
X3231648Y3282028D1*
X3234025Y3286781D1*
Y3293966D1*
X3231648Y3298774D1*
X3229271Y3301151D1*
X3222086Y3303528D1*
X3229271Y3305959D1*
X3231648Y3308336D1*
X3234025Y3313089D1*
Y3317898D1*
X3231648Y3322651D1*
X3229271Y3325083D1*
X3222086Y3327459D1*
X3200531D1*
Y3303528D2*
X3222086D1*
X3266211Y3327459D2*
Y3277219D1*
X3249464Y3327459D2*
X3282957D1*
X1019000Y1523568D2*
D61*
X1028617Y1528432D1*
X1042987Y1542691D1*
Y1442322D1*
X1073866Y1509308D2*
Y1461445D1*
X1078619Y1447185D1*
X1088236Y1442322D1*
X1102606D1*
X1112112Y1447185D1*
X1126483Y1461445D1*
Y1509308D2*
Y1442322D1*
X1219595Y1542802D2*
X1157361D1*
Y1442322D1*
Y1494938D2*
X1195608D1*
X1405045Y1528432D2*
X1400292Y1537938D1*
X1385921Y1542691D1*
X1376415D1*
X1362045Y1537938D1*
X1352428Y1523568D1*
X1347675Y1499692D1*
Y1475815D1*
X1352428Y1456692D1*
X1362045Y1447075D1*
X1376415Y1442322D1*
X1381168D1*
X1395428Y1447075D1*
X1405045Y1456692D1*
X1409798Y1471062D1*
Y1475815D1*
X1405045Y1490185D1*
X1395428Y1499692D1*
X1381168Y1504445D1*
X1376415D1*
X1362045Y1499692D1*
X1352428Y1490185D1*
X1347675Y1475815D1*
X1450293Y1542691D2*
X1502799D1*
X1474170Y1504445D1*
X1488540D1*
X1498046Y1499692D1*
X1502799Y1494938D1*
X1507663Y1480568D1*
Y1471062D1*
X1502799Y1456692D1*
X1493293Y1447075D1*
X1478923Y1442322D1*
X1464553D1*
X1450293Y1447075D1*
X1445540Y1451939D1*
X1440676Y1461445D1*
X1567282Y1542691D2*
X1552912Y1537938D1*
X1543295Y1523568D1*
X1538542Y1499692D1*
Y1485321D1*
X1543295Y1461445D1*
X1552912Y1447075D1*
X1567282Y1442322D1*
X1576788D1*
X1591158Y1447075D1*
X1600665Y1461445D1*
X1605528Y1485321D1*
Y1499692D1*
X1600665Y1523568D1*
X1591158Y1537938D1*
X1576788Y1542691D1*
X1567282D1*
X1600665Y1523568D2*
X1543295Y1461445D1*
X1636407Y1542802D2*
X1674653Y1442322D1*
X1712900Y1542802D1*
X2719000Y1523568D2*
X2728617Y1528432D1*
X2742987Y1542691D1*
Y1442322D1*
X2773866Y1509308D2*
Y1461445D1*
X2778619Y1447185D1*
X2788236Y1442322D1*
X2802606D1*
X2812112Y1447185D1*
X2826483Y1461445D1*
Y1509308D2*
Y1442322D1*
X2919595Y1542802D2*
X2857361D1*
Y1442322D1*
Y1494938D2*
X2895608D1*
X3105045Y1528432D2*
X3100292Y1537938D1*
X3085921Y1542691D1*
X3076415D1*
X3062045Y1537938D1*
X3052428Y1523568D1*
X3047675Y1499692D1*
Y1475815D1*
X3052428Y1456692D1*
X3062045Y1447075D1*
X3076415Y1442322D1*
X3081168D1*
X3095428Y1447075D1*
X3105045Y1456692D1*
X3109798Y1471062D1*
Y1475815D1*
X3105045Y1490185D1*
X3095428Y1499692D1*
X3081168Y1504445D1*
X3076415D1*
X3062045Y1499692D1*
X3052428Y1490185D1*
X3047675Y1475815D1*
X3150293Y1542691D2*
X3202799D1*
X3174170Y1504445D1*
X3188540D1*
X3198046Y1499692D1*
X3202799Y1494938D1*
X3207663Y1480568D1*
Y1471062D1*
X3202799Y1456692D1*
X3193293Y1447075D1*
X3178923Y1442322D1*
X3164553D1*
X3150293Y1447075D1*
X3145540Y1451939D1*
X3140676Y1461445D1*
X3267282Y1542691D2*
X3252912Y1537938D1*
X3243295Y1523568D1*
X3238542Y1499692D1*
Y1485321D1*
X3243295Y1461445D1*
X3252912Y1447075D1*
X3267282Y1442322D1*
X3276788D1*
X3291158Y1447075D1*
X3300665Y1461445D1*
X3305528Y1485321D1*
Y1499692D1*
X3300665Y1523568D1*
X3291158Y1537938D1*
X3276788Y1542691D1*
X3267282D1*
X3300665Y1523568D2*
X3243295Y1461445D1*
X3336407Y1542802D2*
X3374653Y1442322D1*
X3412900Y1542802D1*
X1293728Y2873650D2*
D62*
Y2813362D1*
X1273632Y2873650D2*
X1313824D1*
X1332351D2*
X1355299Y2813362D1*
X1378247Y2873650D1*
X1436966Y2865028D2*
X1431262Y2870798D1*
X1422640Y2873650D1*
X1411166D1*
X1402544Y2870798D1*
X1396774Y2865028D1*
Y2859324D1*
X1399692Y2853554D1*
X1402544Y2850702D1*
X1408248Y2847850D1*
X1425492Y2842080D1*
X1431262Y2839228D1*
X1434114Y2836309D1*
X1436966Y2830606D1*
Y2821984D1*
X1431262Y2816280D1*
X1422640Y2813362D1*
X1411166D1*
X1402544Y2816280D1*
X1396774Y2821984D1*
X1893728Y2873650D2*
Y2813362D1*
X1873632Y2873650D2*
X1913824D1*
X1932351D2*
X1955299Y2813362D1*
X1978247Y2873650D1*
X2036966Y2865028D2*
X2031262Y2870798D1*
X2022640Y2873650D1*
X2011166D1*
X2002544Y2870798D1*
X1996774Y2865028D1*
Y2859324D1*
X1999692Y2853554D1*
X2002544Y2850702D1*
X2008248Y2847850D1*
X2025492Y2842080D1*
X2031262Y2839228D1*
X2034114Y2836309D1*
X2036966Y2830606D1*
Y2821984D1*
X2031262Y2816280D1*
X2022640Y2813362D1*
X2011166D1*
X2002544Y2816280D1*
X1996774Y2821984D1*
X2393728Y2873650D2*
Y2813362D1*
X2373632Y2873650D2*
X2413824D1*
X2432351D2*
X2455299Y2813362D1*
X2478247Y2873650D1*
X2536966Y2865028D2*
X2531262Y2870798D1*
X2522640Y2873650D1*
X2511166D1*
X2502544Y2870798D1*
X2496774Y2865028D1*
Y2859324D1*
X2499692Y2853554D1*
X2502544Y2850702D1*
X2508248Y2847850D1*
X2525492Y2842080D1*
X2531262Y2839228D1*
X2534114Y2836309D1*
X2536966Y2830606D1*
Y2821984D1*
X2531262Y2816280D1*
X2522640Y2813362D1*
X2511166D1*
X2502544Y2816280D1*
X2496774Y2821984D1*
X2893728Y2873650D2*
Y2813362D1*
X2873632Y2873650D2*
X2913824D1*
X2932351D2*
X2955299Y2813362D1*
X2978247Y2873650D1*
X3036966Y2865028D2*
X3031262Y2870798D1*
X3022640Y2873650D1*
X3011166D1*
X3002544Y2870798D1*
X2996774Y2865028D1*
Y2859324D1*
X2999692Y2853554D1*
X3002544Y2850702D1*
X3008248Y2847850D1*
X3025492Y2842080D1*
X3031262Y2839228D1*
X3034114Y2836309D1*
X3036966Y2830606D1*
Y2821984D1*
X3031262Y2816280D1*
X3022640Y2813362D1*
X3011166D1*
X3002544Y2816280D1*
X2996774Y2821984D1*
X944000Y1242802D2*
D61*
Y1142322D1*
X1001370D1*
X1032249Y1242802D2*
Y1142322D1*
X1063127Y1242802D2*
X1101374Y1142322D1*
X1139620Y1242802D1*
X1232622D2*
X1170499D1*
Y1142322D1*
X1232622D1*
X1170499Y1194938D2*
X1208745D1*
X3235987Y1267802D2*
Y1167322D1*
X3169000Y1267802D1*
Y1167322D1*
X3328989Y1267802D2*
X3266866D1*
Y1167322D1*
X3328989D1*
X3266866Y1219938D2*
X3305112D1*
X3359867Y1267802D2*
Y1196062D1*
X3364620Y1181692D1*
X3374237Y1172185D1*
X3388607Y1167322D1*
X3398114D1*
X3412484Y1172185D1*
X3422101Y1181692D1*
X3426854Y1196062D1*
Y1267802D1*
M02*
